<svg width="281" height="281" viewBox="0 0 281 281" fill="var(--icon-bg, transparent)" xmlns="http://www.w3.org/2000/svg">
<path d="M237.696 174.474C210.147 197.291 174.762 208.435 139.103 205.519C114.67 203.978 94.2746 193.02 78.7002 178.338C73.0845 173.044 55.7729 208.625 46.0464 208.612C32.5762 208.588 19.1802 185.586 17.1597 172.64H19.1291C24.9353 182.767 33.4726 190.591 43.1991 196.284C46.0093 197.927 55.0575 178.737 66.4422 165.225C76.6564 153.102 85.4028 163.772 87.2236 164.928C97.9116 171.716 110.341 176.476 123.816 177.924C156.331 181.866 195.297 167.087 216.492 146.88L192.83 128.646H264.311L248.518 204.539L238.165 174.971L237.691 174.479L237.696 174.474Z" fill="white"/>
<path d="M108.298 128.836C131.118 128.836 146.957 108.169 146.957 91.2628C146.957 78.6471 135.41 73.2795 124.137 73.2795C99.161 73.2795 85.4771 95.5671 85.4771 110.853C85.4771 123.468 97.2891 128.836 108.298 128.836Z" fill="white"/>
<path d="M169.518 128.836C192.338 128.836 208.177 108.169 208.177 91.2628C208.177 78.6471 196.365 73.2795 185.087 73.2795C160.121 73.2795 146.428 95.5532 146.428 110.853C146.428 123.468 158.509 128.836 169.518 128.836Z" fill="white"/>
</svg>
