<svg width="576" height="188" viewBox="0 0 576 188" fill="var(--icon-bg, transparent)" xmlns="http://www.w3.org/2000/svg">
<path d="M513.966 107.544C449.787 160.771 367.354 186.767 284.282 179.964C227.364 176.368 179.85 150.805 143.567 116.556C130.485 104.208 90.1554 187.211 67.4965 187.178C36.1159 187.124 4.9085 133.464 0.201416 103.265H4.78946C18.3156 126.889 38.2043 145.14 60.8633 158.42C67.4099 162.255 88.4889 117.487 115.011 85.9671C138.806 57.6856 159.182 82.5768 163.424 85.2739C188.322 101.11 217.279 112.212 248.67 115.592C324.417 124.788 415.193 90.3106 464.569 43.1712L409.447 0.635254H575.97L539.179 177.679L515.059 108.703L513.955 107.555L513.966 107.544Z" fill="#F6A029"/>
</svg>
