<svg width="1161" height="376" viewBox="0 0 1161 376" fill="var(--icon-bg, transparent)" xmlns="http://www.w3.org/2000/svg">
<path opacity="0.2" d="M1035.67 215.492C906.304 322.779 740.146 375.178 572.701 361.467C457.973 354.218 362.2 302.693 289.067 233.657C262.697 208.767 181.407 376.073 135.734 376.008C72.4814 375.899 9.57774 267.738 0.0898438 206.868H9.33779C36.6019 254.485 76.6909 291.274 122.364 318.041C135.56 325.77 178.048 235.534 231.507 172C279.47 114.994 320.541 165.167 329.091 170.603C379.278 202.523 437.645 224.902 500.92 231.714C653.599 250.25 836.573 180.755 936.098 85.7381L824.991 0H1160.64L1086.49 356.86L1037.87 217.828L1035.64 215.513L1035.67 215.492Z" fill="#F6A029"/>
</svg>
