<svg width="34" height="24" viewBox="0 0 34 24" fill="none" xmlns="http://www.w3.org/2000/svg">
<path fill-rule="evenodd" clip-rule="evenodd" d="M17.1308 0.866211C17.6824 0.866211 18.1976 1.14192 18.5036 1.60095L24.1053 10.0034L30.9499 4.52773C31.4914 4.09451 32.246 4.04615 32.8384 4.40669C33.4308 4.76723 33.7345 5.45972 33.5985 6.13974L30.2986 22.6395C30.1443 23.4108 29.4671 23.9659 28.6806 23.9659H5.58089C4.79438 23.9659 4.1172 23.4108 3.96295 22.6395L0.66299 6.13974C0.526986 5.45972 0.830715 4.76723 1.42312 4.40669C2.01552 4.04615 2.77014 4.09451 3.31166 4.52773L10.1563 10.0034L15.7579 1.60095C16.0639 1.14192 16.5791 0.866211 17.1308 0.866211ZM17.1308 5.49074L11.9037 13.3313C11.6472 13.7161 11.2409 13.9756 10.784 14.0465C10.327 14.1175 9.86121 13.9934 9.5001 13.7045L4.78719 9.93417L6.93355 20.666H27.328L29.4743 9.93417L24.7614 13.7045C24.4003 13.9934 23.9345 14.1175 23.4775 14.0465C23.0206 13.9756 22.6143 13.7161 22.3578 13.3313L17.1308 5.49074Z" fill="#FFC107"/>
</svg>
