<svg width="34" height="24" viewBox="0 0 34 24" fill="none" xmlns="http://www.w3.org/2000/svg">
<path fill-rule="evenodd" clip-rule="evenodd" d="M17.2611 0.866211C17.8128 0.866211 18.328 1.14192 18.634 1.60095L24.2356 10.0034L31.0802 4.52773C31.6217 4.09451 32.3764 4.04615 32.9688 4.40669C33.5612 4.76723 33.8649 5.45972 33.7289 6.13974L30.4289 22.6395C30.2747 23.4108 29.5975 23.9659 28.811 23.9659H5.71126C4.92475 23.9659 4.24757 23.4108 4.09332 22.6395L0.793361 6.13974C0.657357 5.45972 0.961086 4.76723 1.55349 4.40669C2.14589 4.04615 2.90051 4.09451 3.44204 4.52773L10.2866 10.0034L15.8883 1.60095C16.1943 1.14192 16.7095 0.866211 17.2611 0.866211ZM17.2611 5.49074L12.0341 13.3313C11.7775 13.7161 11.3713 13.9756 10.9143 14.0465C10.4574 14.1175 9.99159 13.9934 9.63047 13.7045L4.91756 9.93417L7.06392 20.666H27.4583L29.6047 9.93417L24.8918 13.7045C24.5307 13.9934 24.0649 14.1175 23.6079 14.0465C23.1509 13.9756 22.7447 13.7161 22.4882 13.3313L17.2611 5.49074Z" fill="#DC3545"/>
<path fill-rule="evenodd" clip-rule="evenodd" d="M17.2611 0.866211C17.8128 0.866211 18.328 1.14192 18.634 1.60095L24.2356 10.0034L31.0802 4.52773C31.6217 4.09451 32.3764 4.04615 32.9688 4.40669C33.5612 4.76723 33.8649 5.45972 33.7289 6.13974L30.4289 22.6395C30.2747 23.4108 29.5975 23.9659 28.811 23.9659H5.71126C4.92475 23.9659 4.24757 23.4108 4.09332 22.6395L0.793361 6.13974C0.657357 5.45972 0.961086 4.76723 1.55349 4.40669C2.14589 4.04615 2.90051 4.09451 3.44204 4.52773L10.2866 10.0034L15.8883 1.60095C16.1943 1.14192 16.7095 0.866211 17.2611 0.866211ZM17.2611 5.49074L12.0341 13.3313C11.7775 13.7161 11.3713 13.9756 10.9143 14.0465C10.4574 14.1175 9.99159 13.9934 9.63047 13.7045L4.91756 9.93417L7.06392 20.666H27.4583L29.6047 9.93417L24.8918 13.7045C24.5307 13.9934 24.0649 14.1175 23.6079 14.0465C23.1509 13.9756 22.7447 13.7161 22.4882 13.3313L17.2611 5.49074Z" fill="black" fill-opacity="0.2"/>
</svg>
