<svg width="34" height="24" viewBox="0 0 34 24" fill="none" xmlns="http://www.w3.org/2000/svg">
<path fill-rule="evenodd" clip-rule="evenodd" d="M16.8695 0.866211C17.4212 0.866211 17.9364 1.14192 18.2424 1.60095L23.844 10.0034L30.6886 4.52773C31.2301 4.09451 31.9848 4.04615 32.5772 4.40669C33.1696 4.76723 33.4733 5.45972 33.3373 6.13974L30.0373 22.6395C29.8831 23.4108 29.2059 23.9659 28.4194 23.9659H5.31966C4.53315 23.9659 3.85597 23.4108 3.70172 22.6395L0.401759 6.13974C0.265755 5.45972 0.569485 4.76723 1.16189 4.40669C1.75429 4.04615 2.50891 4.09451 3.05043 4.52773L9.89502 10.0034L15.4967 1.60095C15.8027 1.14192 16.3179 0.866211 16.8695 0.866211ZM16.8695 5.49074L11.6425 13.3313C11.3859 13.7161 10.9797 13.9756 10.5227 14.0465C10.0658 14.1175 9.59998 13.9934 9.23887 13.7045L4.52596 9.93417L6.67232 20.666H27.0667L29.2131 9.93417L24.5002 13.7045C24.1391 13.9934 23.6733 14.1175 23.2163 14.0465C22.7593 13.9756 22.3531 13.7161 22.0966 13.3313L16.8695 5.49074Z" fill="#6C757D"/>
</svg>
