<svg width="558" height="353" viewBox="0 0 558 353" fill="var(--icon-bg, transparent)" xmlns="http://www.w3.org/2000/svg">
<path d="M0.235352 278.241V212.158C0.235352 211.271 0.681264 210.825 1.56844 210.825H12.7116C13.5988 210.825 14.0447 211.271 14.0447 212.158V278.241C14.0447 279.132 13.5988 279.573 12.7116 279.573H1.56844C0.681264 279.573 0.235352 279.127 0.235352 278.241Z" fill="#EB0033"/>
<path d="M21.8621 255.103C21.8621 250.214 22.9025 245.817 24.9788 241.916C27.0597 238.011 29.9628 234.965 33.6927 232.774C37.4225 230.582 41.6726 229.486 46.4337 229.486C51.4502 229.486 55.5795 230.629 58.817 232.913C62.0546 235.198 64.5303 238.276 66.2489 242.149C66.3139 242.274 66.3465 242.464 66.3465 242.72C66.3465 243.165 66.0585 243.546 65.4871 243.862L56.9126 247.386C56.5317 247.512 56.3088 247.577 56.2438 247.577C55.8629 247.577 55.5145 247.289 55.194 246.718C53.2246 243.161 50.3029 241.387 46.429 241.387C43.0615 241.387 40.3349 242.659 38.2354 245.195C36.1405 247.734 35.0908 251.003 35.0908 255.001C35.0908 258.999 36.1405 262.556 38.2354 265.095C40.3303 267.635 43.0615 268.903 46.429 268.903C50.6188 268.903 53.7959 267.064 55.9558 263.382C56.3367 262.621 56.908 262.398 57.6697 262.713L66.1467 266.238C66.5926 266.428 66.876 266.637 67.006 266.855C67.1314 267.078 67.1314 267.347 67.006 267.663C65.227 271.601 62.6259 274.772 59.1933 277.186C55.7607 279.601 51.5106 280.804 46.429 280.804C41.3475 280.804 37.325 279.708 33.5905 277.516C29.8606 275.325 26.9668 272.279 24.9231 268.374C22.8747 264.469 21.8528 260.044 21.8528 255.089L21.8621 255.103Z" fill="#EB0033"/>
<path d="M69.3052 266.326C69.3052 262.24 70.7962 258.952 73.7829 256.464C76.7696 253.975 80.8014 252.508 85.8829 252.057L99.1209 250.813V249.383C99.1209 246.718 98.3731 244.623 96.8821 243.096C95.391 241.573 93.2126 240.811 90.356 240.811C86.2266 240.811 83.0541 242.562 80.8292 246.067C80.4483 246.834 79.877 247.056 79.1153 246.736L71.1121 243.685C70.7312 243.56 70.4757 243.337 70.3503 243.017C70.2249 242.701 70.2527 242.348 70.4478 241.967C72.1618 238.155 74.7676 235.119 78.2606 232.862C81.7536 230.605 86.0408 229.477 91.1224 229.477C95.3121 229.477 98.963 230.304 102.075 231.957C105.187 233.61 107.584 235.913 109.265 238.87C110.947 241.828 111.788 245.181 111.788 248.928V258.196C111.788 261.432 112.122 264.306 112.786 266.813C113.45 269.321 114.579 271.972 116.168 274.763C116.358 275.013 116.456 275.297 116.456 275.612C116.456 275.928 116.2 276.244 115.694 276.555L106.929 280.613C106.804 280.674 106.613 280.706 106.358 280.706C105.786 280.706 105.373 280.488 105.118 280.047C103.594 277.72 102.419 275.297 101.592 272.78C100.003 275.106 97.8947 277.029 95.2563 278.538C92.6227 280.047 89.492 280.804 85.8736 280.804C82.6965 280.804 79.8399 280.186 77.2991 278.956C74.7583 277.725 72.7889 276.002 71.3954 273.797C69.9973 271.587 69.3005 269.093 69.3005 266.317L69.3052 266.326ZM81.7814 265.416C81.7814 267.087 82.3853 268.341 83.593 269.177C84.8006 270.013 86.3567 270.431 88.2611 270.431C90.6718 270.431 92.8178 269.887 94.6897 268.792C96.5616 267.7 98.0386 266.224 99.1209 264.362V258.966L87.4947 260.397C85.5252 260.652 84.0853 261.186 83.1656 261.989C82.2459 262.792 81.7861 263.935 81.7861 265.416H81.7814Z" fill="#EB0033"/>
<path d="M121.221 278.24V232.059C121.221 231.172 121.667 230.726 122.555 230.726H132.365C133.252 230.726 133.698 231.172 133.698 232.059V238.536C135.918 236.252 138.189 234.362 140.507 232.871C142.825 231.381 145.347 230.253 148.078 229.491L148.459 229.394C149.096 229.394 149.509 229.774 149.699 230.536L151.701 241.201L151.799 241.68C151.799 242.251 151.418 242.599 150.656 242.729C147.289 243.175 144.274 243.904 141.608 244.921C138.942 245.937 136.466 247.335 134.176 249.109V278.245C134.176 279.137 133.73 279.578 132.843 279.578H122.555C121.663 279.578 121.221 279.132 121.221 278.245V278.24Z" fill="#EB0033"/>
<path d="M152.565 255.01C152.565 250.186 153.564 245.84 155.566 241.963C157.568 238.09 160.392 235.044 164.043 232.82C167.694 230.601 171.87 229.486 176.57 229.486C181.016 229.486 184.903 230.503 188.238 232.532C191.573 234.566 194.161 237.357 196 240.913C197.839 244.47 198.764 248.533 198.764 253.102C198.764 253.928 198.699 255.229 198.573 257.007C198.508 257.833 198.035 258.247 197.143 258.247H165.613C166.059 261.864 167.392 264.692 169.612 266.721C171.833 268.754 174.596 269.767 177.899 269.767C182.089 269.767 185.331 268.086 187.616 264.719C188.122 264.023 188.726 263.86 189.427 264.241L197.24 267.956C198.067 268.401 198.35 268.875 198.1 269.386C196.321 272.878 193.687 275.654 190.194 277.716C186.701 279.777 182.446 280.813 177.43 280.813C172.413 280.813 168.316 279.731 164.568 277.577C160.819 275.417 157.884 272.385 155.756 268.485C153.629 264.58 152.565 260.09 152.565 255.01ZM165.808 249.202H186.288C185.972 246.221 184.922 243.918 183.143 242.297C181.364 240.677 179.144 239.869 176.473 239.869C173.802 239.869 171.535 240.709 169.663 242.39C167.791 244.071 166.505 246.341 165.803 249.197L165.808 249.202Z" fill="#EB0033"/>
<path d="M227.544 278.241V212.158C227.544 211.271 227.99 210.825 228.877 210.825H272.98C273.867 210.825 274.313 211.271 274.313 212.167V222.433C274.313 223.33 273.867 223.775 272.976 223.775H240.972V241.294H268.688C269.58 241.294 270.026 241.74 270.026 242.636V252.902C270.026 253.798 269.58 254.244 268.688 254.244H240.972V278.245C240.972 279.132 240.531 279.573 239.648 279.573H228.868C227.985 279.573 227.544 279.127 227.544 278.241Z" fill="#EB0033"/>
<path d="M279.748 214.73C279.748 212.511 280.501 210.714 282.001 209.349C283.501 207.984 285.466 207.301 287.895 207.301C290.325 207.301 292.22 207.984 293.669 209.349C295.123 210.714 295.847 212.539 295.847 214.823C295.847 217.108 295.123 218.951 293.669 220.344C292.215 221.742 290.292 222.438 287.895 222.438C285.498 222.438 283.501 221.742 282.001 220.344C280.501 218.946 279.748 217.075 279.748 214.726V214.73ZM281.462 278.24V232.059C281.462 231.172 281.903 230.726 282.786 230.726H293.093C293.975 230.726 294.417 231.172 294.417 232.059V278.24C294.417 279.132 293.975 279.573 293.093 279.573H282.786C281.903 279.573 281.462 279.127 281.462 278.24Z" fill="#EB0033"/>
<path d="M303.85 278.241V232.059C303.85 231.172 304.296 230.726 305.183 230.726H314.994C315.881 230.726 316.327 231.172 316.327 232.059V237.199C318.802 234.534 321.357 232.579 323.995 231.344C326.629 230.104 329.472 229.486 332.519 229.486C338.042 229.486 342.315 231.246 345.329 234.77C348.344 238.295 349.854 243.1 349.854 249.197V278.241C349.854 279.132 349.408 279.573 348.521 279.573H338.232C337.34 279.573 336.899 279.127 336.899 278.241V250.339C336.899 247.549 336.263 245.357 334.995 243.769C333.722 242.181 331.85 241.387 329.374 241.387C327.279 241.387 325.166 241.958 323.039 243.1C320.911 244.243 318.83 245.956 316.8 248.241V278.236C316.8 279.127 316.354 279.568 315.467 279.568H305.179C304.287 279.568 303.846 279.123 303.846 278.236L303.85 278.241Z" fill="#EB0033"/>
<path d="M356.152 266.326C356.152 262.24 357.643 258.952 360.63 256.464C363.616 253.975 367.648 252.508 372.73 252.057L385.968 250.813V249.383C385.968 246.718 385.22 244.623 383.729 243.096C382.238 241.573 380.06 240.811 377.203 240.811C373.074 240.811 369.901 242.562 367.676 246.067C367.295 246.834 366.724 247.056 365.962 246.736L357.959 243.685C357.578 243.56 357.323 243.337 357.197 243.017C357.072 242.701 357.1 242.348 357.295 241.967C359.009 238.155 361.615 235.119 365.108 232.862C368.601 230.605 372.888 229.477 377.969 229.477C382.159 229.477 385.81 230.304 388.922 231.957C392.034 233.61 394.431 235.913 396.112 238.87C397.794 241.828 398.635 245.181 398.635 248.928V258.196C398.635 261.432 398.969 264.306 399.633 266.813C400.297 269.321 401.426 271.972 403.015 274.763C403.205 275.013 403.303 275.297 403.303 275.612C403.303 275.928 403.047 276.244 402.541 276.555L393.776 280.613C393.651 280.674 393.46 280.706 393.205 280.706C392.633 280.706 392.22 280.488 391.964 280.047C390.441 277.72 389.266 275.297 388.439 272.78C386.85 275.106 384.742 277.029 382.103 278.538C379.47 280.047 376.339 280.804 372.721 280.804C369.543 280.804 366.687 280.186 364.146 278.956C361.605 277.725 359.636 276.002 358.242 273.797C356.844 271.587 356.147 269.093 356.147 266.317L356.152 266.326ZM368.628 265.416C368.628 267.087 369.232 268.341 370.44 269.177C371.648 270.013 373.204 270.431 375.108 270.431C377.519 270.431 379.665 269.887 381.537 268.792C383.409 267.7 384.886 266.224 385.968 264.362V258.966L374.342 260.397C372.372 260.652 370.932 261.186 370.013 261.989C369.093 262.792 368.633 263.935 368.633 265.416H368.628Z" fill="#EB0033"/>
<path d="M408.068 278.241V232.059C408.068 231.172 408.514 230.726 409.401 230.726H419.212C420.099 230.726 420.545 231.172 420.545 232.059V237.199C423.02 234.534 425.575 232.579 428.213 231.344C430.847 230.104 433.69 229.486 436.737 229.486C442.26 229.486 446.533 231.246 449.547 234.77C452.562 238.295 454.072 243.1 454.072 249.197V278.241C454.072 279.132 453.626 279.573 452.739 279.573H442.45C441.558 279.573 441.117 279.127 441.117 278.241V250.339C441.117 247.549 440.481 245.357 439.213 243.769C437.94 242.181 436.068 241.387 433.592 241.387C431.497 241.387 429.384 241.958 427.257 243.1C425.129 244.243 423.048 245.956 421.018 248.241V278.236C421.018 279.127 420.572 279.568 419.685 279.568H409.397C408.505 279.568 408.064 279.123 408.064 278.236L408.068 278.241Z" fill="#EB0033"/>
<path d="M460.751 255.103C460.751 250.214 461.791 245.817 463.868 241.916C465.944 238.011 468.852 234.965 472.582 232.774C476.311 230.582 480.562 229.486 485.323 229.486C490.339 229.486 494.468 230.629 497.706 232.913C500.943 235.198 503.419 238.276 505.138 242.149C505.203 242.274 505.235 242.464 505.235 242.72C505.235 243.165 504.947 243.546 504.376 243.862L495.802 247.386C495.421 247.512 495.198 247.577 495.133 247.577C494.752 247.577 494.403 247.289 494.083 246.718C492.113 243.161 489.192 241.387 485.318 241.387C481.95 241.387 479.224 242.659 477.124 245.195C475.029 247.734 473.98 251.003 473.98 255.001C473.98 258.999 475.029 262.556 477.124 265.095C479.219 267.635 481.95 268.903 485.318 268.903C489.508 268.903 492.685 267.064 494.845 263.382C495.226 262.621 495.797 262.398 496.559 262.713L505.036 266.238C505.482 266.428 505.765 266.637 505.895 266.855C506.02 267.078 506.02 267.347 505.895 267.663C504.116 271.601 501.515 274.772 498.082 277.186C494.65 279.601 490.399 280.804 485.318 280.804C480.236 280.804 476.214 279.708 472.479 277.516C468.745 275.325 465.856 272.279 463.812 268.374C461.764 264.469 460.742 260.044 460.742 255.089L460.751 255.103Z" fill="#EB0033"/>
<path d="M508.575 255.01C508.575 250.186 509.574 245.84 511.576 241.963C513.578 238.09 516.402 235.044 520.053 232.82C523.704 230.601 527.879 229.486 532.58 229.486C537.025 229.486 540.913 230.503 544.248 232.532C547.583 234.566 550.17 237.357 552.01 240.913C553.849 244.47 554.774 248.533 554.774 253.102C554.774 253.928 554.708 255.229 554.583 257.007C554.518 257.833 554.044 258.247 553.152 258.247H521.623C522.069 261.864 523.402 264.692 525.622 266.721C527.842 268.754 530.606 269.767 533.909 269.767C538.098 269.767 541.34 268.086 543.626 264.719C544.132 264.023 544.736 263.86 545.437 264.241L553.25 267.956C554.077 268.401 554.36 268.875 554.109 269.386C552.33 272.878 549.697 275.654 546.204 277.716C542.711 279.777 538.456 280.813 533.439 280.813C528.423 280.813 524.326 279.731 520.578 277.577C516.829 275.417 513.894 272.385 511.766 268.485C509.639 264.58 508.575 260.09 508.575 255.01ZM521.813 249.202H542.293C541.977 246.221 540.927 243.918 539.148 242.297C537.369 240.677 535.149 239.869 532.478 239.869C529.807 239.869 527.54 240.709 525.668 242.39C523.797 244.071 522.51 246.341 521.809 249.197L521.813 249.202Z" fill="#EB0033"/>
<path d="M2.12122 342.484V311.152C2.12122 311.003 2.17231 310.873 2.27914 310.771C2.38598 310.669 2.51139 310.613 2.66003 310.613H6.92406C7.0727 310.613 7.20276 310.664 7.30494 310.771C7.41178 310.878 7.46287 311.003 7.46287 311.152V342.484C7.46287 342.633 7.41178 342.763 7.30494 342.865C7.19811 342.967 7.0727 343.023 6.92406 343.023H2.66003C2.51139 343.023 2.38133 342.972 2.27914 342.865C2.17695 342.758 2.12122 342.633 2.12122 342.484Z" fill="#840019"/>
<path d="M23.9476 324.204V320.67C23.9476 320.517 23.9987 320.392 24.1056 320.285C24.2124 320.178 24.3378 320.127 24.4864 320.127H28.6622V314.11C28.6622 313.961 28.7133 313.836 28.8202 313.729C28.927 313.627 29.0524 313.571 29.201 313.571H33.1539C33.3025 313.571 33.4326 313.622 33.5347 313.729C33.6416 313.831 33.6927 313.961 33.6927 314.11V320.127H40.4743C40.6229 320.127 40.753 320.178 40.8551 320.285C40.962 320.392 41.0131 320.517 41.0131 320.67V324.204C41.0131 324.357 40.962 324.483 40.8551 324.589C40.7483 324.696 40.6229 324.747 40.4743 324.747H33.6927V333.337C33.6927 334.531 33.8552 335.487 34.185 336.202C34.5148 336.917 35.0908 337.456 35.9129 337.813C36.7351 338.171 37.8824 338.352 39.3502 338.352H40.6508C40.7994 338.352 40.9295 338.403 41.0316 338.51C41.1385 338.617 41.1896 338.742 41.1896 338.891V342.526C41.1896 342.675 41.1385 342.805 41.0316 342.907C40.9248 343.014 40.7994 343.065 40.6508 343.065H38.8532C35.3788 343.065 32.8148 342.28 31.1519 340.715C29.489 339.146 28.6576 336.917 28.6576 334.02V324.752H24.4818C24.3332 324.752 24.2031 324.701 24.1009 324.594C23.9941 324.487 23.943 324.362 23.943 324.209L23.9476 324.204Z" fill="#840019"/>
<path d="M44.5571 336.745C44.5571 334.874 45.2399 333.379 46.6009 332.269C47.9619 331.155 49.8105 330.496 52.1469 330.287L58.7474 329.604V328.661C58.7474 327.255 58.3572 326.14 57.5815 325.318C56.8011 324.496 55.6817 324.083 54.2139 324.083C51.9983 324.083 50.354 325.054 49.2764 326.995C49.216 327.143 49.1184 327.241 48.9837 327.287C48.849 327.333 48.705 327.324 48.5564 327.264L45.4118 326.01C45.082 325.862 44.9938 325.62 45.1424 325.295C45.9506 323.563 47.1397 322.17 48.7143 321.125C50.289 320.081 52.1934 319.556 54.4415 319.556C56.3041 319.556 57.9438 319.937 59.3605 320.698C60.7772 321.46 61.8641 322.514 62.6305 323.86C63.3969 325.207 63.7824 326.73 63.7824 328.434V333.314C63.7824 334.809 63.9311 336.142 64.2237 337.312C64.5163 338.477 65.0459 339.75 65.8076 341.129C65.8959 341.249 65.9377 341.356 65.9377 341.444C65.9377 341.565 65.8169 341.7 65.58 341.853L62.2357 343.394C62.1149 343.455 62.0267 343.487 61.9663 343.487C61.813 343.487 61.6644 343.394 61.5157 343.213C60.7307 341.913 60.1548 340.715 59.7925 339.629C59.0446 340.78 58.0227 341.723 56.7361 342.466C55.4495 343.204 53.9352 343.576 52.1934 343.576C50.7256 343.576 49.4157 343.288 48.2638 342.717C47.1118 342.145 46.2061 341.338 45.5465 340.302C44.8869 339.262 44.5571 338.083 44.5571 336.759V336.745ZM49.4529 336.527C49.4529 337.451 49.7734 338.143 50.419 338.603C51.0647 339.062 51.91 339.294 52.9551 339.294C54.2139 339.294 55.3519 338.988 56.3692 338.38C57.3864 337.767 58.1807 336.94 58.7474 335.9V333.086L52.774 333.848C51.6081 333.969 50.7627 334.243 50.2379 334.674C49.713 335.106 49.4529 335.724 49.4529 336.527Z" fill="#840019"/>
<path d="M70.29 342.484V310.297C70.29 310.149 70.3411 310.019 70.448 309.917C70.5548 309.815 70.6802 309.759 70.8288 309.759H74.7817C74.9303 309.759 75.0604 309.81 75.1626 309.917C75.2647 310.023 75.3205 310.149 75.3205 310.297V329.827L85.1538 320.401C85.3349 320.22 85.5579 320.132 85.8273 320.132H90.8995C91.2293 320.132 91.3919 320.239 91.3919 320.448C91.3919 320.536 91.3176 320.656 91.1689 320.805L82.1857 329.154L91.573 342.35C91.6613 342.47 91.7077 342.573 91.7077 342.665C91.7077 342.907 91.5405 343.023 91.2154 343.023H86.2778C86.0084 343.023 85.7994 342.902 85.6508 342.665L78.3768 332.204L75.3251 335.078V342.484C75.3251 342.633 75.274 342.763 75.1672 342.865C75.0604 342.967 74.935 343.023 74.7863 343.023H70.8335C70.6849 343.023 70.5548 342.972 70.4526 342.865C70.3504 342.758 70.2947 342.633 70.2947 342.484H70.29Z" fill="#840019"/>
<path d="M93.2358 331.485C93.2358 329.27 93.705 327.259 94.6479 325.448C95.5908 323.637 96.9007 322.207 98.5775 321.163C100.254 320.118 102.168 319.593 104.328 319.593C106.335 319.593 108.109 320.058 109.651 320.986C111.193 321.915 112.391 323.21 113.241 324.868C114.096 326.53 114.524 328.406 114.524 330.5C114.524 330.858 114.491 331.457 114.435 332.297C114.375 332.627 114.18 332.789 113.85 332.789H98.2663C98.4753 334.795 99.1767 336.351 100.375 337.456C101.573 338.566 103.055 339.118 104.82 339.118C107.064 339.118 108.787 338.222 109.985 336.425C110.167 336.095 110.403 336.021 110.705 336.202L113.757 337.73C114.087 337.911 114.189 338.106 114.073 338.315C113.232 339.931 112.02 341.212 110.436 342.155C108.847 343.097 106.948 343.566 104.732 343.566C102.516 343.566 100.533 343.065 98.7819 342.062C97.0307 341.059 95.6698 339.638 94.6943 337.795C93.7236 335.956 93.2358 333.853 93.2358 331.489V331.485ZM98.401 328.926H109.628C109.447 327.31 108.871 326.061 107.9 325.179C106.929 324.297 105.721 323.856 104.286 323.856C102.851 323.856 101.56 324.311 100.514 325.225C99.4647 326.14 98.7633 327.371 98.4056 328.931L98.401 328.926Z" fill="#840019"/>
<path d="M130.418 331.508C130.418 329.237 130.892 327.194 131.844 325.369C132.797 323.545 134.125 322.119 135.839 321.088C137.553 320.058 139.49 319.542 141.645 319.542C143.8 319.542 145.737 320.053 147.191 321.07C148.645 322.087 149.76 323.466 150.536 325.198C150.596 325.318 150.624 325.407 150.624 325.467C150.624 325.676 150.503 325.824 150.266 325.917L146.987 327.31C146.927 327.343 146.838 327.357 146.717 327.357C146.508 327.357 146.36 327.25 146.267 327.036C145.189 325.123 143.647 324.167 141.641 324.167C140.442 324.167 139.379 324.483 138.454 325.114C137.525 325.745 136.805 326.614 136.299 327.724C135.788 328.833 135.537 330.096 135.537 331.508C135.537 332.919 135.793 334.275 136.299 335.403C136.805 336.527 137.525 337.4 138.454 338.013C139.383 338.63 140.428 338.937 141.599 338.937C143.782 338.937 145.459 337.948 146.629 335.965C146.81 335.663 147.061 335.589 147.391 335.738L150.536 337.131C150.684 337.191 150.791 337.275 150.851 337.377C150.912 337.484 150.912 337.595 150.851 337.716C150.071 339.485 148.905 340.901 147.349 341.964C145.793 343.028 143.875 343.562 141.599 343.562C139.323 343.562 137.432 343.046 135.751 342.011C134.069 340.975 132.755 339.545 131.821 337.716C130.888 335.886 130.418 333.82 130.418 331.508Z" fill="#840019"/>
<path d="M154.131 336.745C154.131 334.874 154.814 333.379 156.175 332.269C157.536 331.155 159.384 330.496 161.721 330.287L168.321 329.604V328.661C168.321 327.255 167.931 326.14 167.155 325.318C166.375 324.496 165.255 324.083 163.788 324.083C161.572 324.083 159.928 325.054 158.85 326.995C158.79 327.143 158.692 327.241 158.557 327.287C158.423 327.333 158.279 327.324 158.13 327.264L154.986 326.01C154.656 325.862 154.567 325.62 154.716 325.295C155.524 323.563 156.713 322.17 158.288 321.125C159.863 320.081 161.767 319.556 164.015 319.556C165.878 319.556 167.518 319.937 168.934 320.698C170.351 321.46 171.438 322.514 172.204 323.86C172.971 325.207 173.356 326.73 173.356 328.434V333.314C173.356 334.809 173.505 336.142 173.797 337.312C174.09 338.477 174.62 339.75 175.381 341.129C175.47 341.249 175.511 341.356 175.511 341.444C175.511 341.565 175.391 341.7 175.154 341.853L171.809 343.394C171.689 343.455 171.6 343.487 171.54 343.487C171.387 343.487 171.238 343.394 171.089 343.213C170.304 341.913 169.728 340.715 169.366 339.629C168.618 340.78 167.596 341.723 166.31 342.466C165.023 343.204 163.509 343.576 161.767 343.576C160.299 343.576 158.989 343.288 157.837 342.717C156.686 342.145 155.78 341.338 155.12 340.302C154.461 339.262 154.131 338.083 154.131 336.759V336.745ZM159.027 336.527C159.027 337.451 159.347 338.143 159.993 338.603C160.638 339.062 161.484 339.294 162.529 339.294C163.788 339.294 164.926 338.988 165.943 338.38C166.96 337.767 167.754 336.94 168.321 335.9V333.086L162.348 333.848C161.182 333.969 160.336 334.243 159.812 334.674C159.287 335.106 159.027 335.724 159.027 336.527Z" fill="#840019"/>
<path d="M179.864 342.484V320.666C179.864 320.517 179.915 320.387 180.022 320.285C180.129 320.183 180.254 320.127 180.403 320.127H184.174C184.323 320.127 184.453 320.178 184.555 320.285C184.662 320.392 184.713 320.517 184.713 320.666V323.986C185.791 322.848 186.905 321.919 188.057 321.204C189.209 320.489 190.459 319.946 191.806 319.589L191.987 319.542C192.196 319.542 192.345 319.691 192.438 319.992L193.292 324.079L193.339 324.26C193.339 324.501 193.19 324.65 192.888 324.71C191.332 324.951 189.911 325.337 188.624 325.876C187.337 326.414 186.093 327.162 184.899 328.118V342.484C184.899 342.633 184.848 342.763 184.741 342.865C184.634 342.967 184.509 343.023 184.36 343.023H180.407C180.259 343.023 180.129 342.972 180.026 342.865C179.924 342.758 179.868 342.633 179.868 342.484H179.864Z" fill="#840019"/>
<path d="M195.536 331.485C195.536 329.27 196.005 327.259 196.948 325.448C197.891 323.637 199.2 322.207 200.877 321.163C202.554 320.118 204.468 319.593 206.628 319.593C208.634 319.593 210.409 320.058 211.951 320.986C213.493 321.915 214.691 323.21 215.541 324.868C216.396 326.53 216.823 328.406 216.823 330.5C216.823 330.858 216.791 331.457 216.735 332.297C216.675 332.627 216.48 332.789 216.15 332.789H200.566C200.775 334.795 201.476 336.351 202.675 337.456C203.873 338.566 205.355 339.118 207.12 339.118C209.364 339.118 211.087 338.222 212.285 336.425C212.466 336.095 212.703 336.021 213.005 336.202L216.057 337.73C216.387 337.911 216.489 338.106 216.373 338.315C215.532 339.931 214.32 341.212 212.736 342.155C211.147 343.097 209.247 343.566 207.032 343.566C204.816 343.566 202.833 343.065 201.082 342.062C199.331 341.059 197.97 339.638 196.994 337.795C196.023 335.956 195.536 333.853 195.536 331.489V331.485ZM200.701 328.926H211.928C211.746 327.31 211.17 326.061 210.2 325.179C209.229 324.297 208.021 323.856 206.586 323.856C205.151 323.856 203.859 324.311 202.814 325.225C201.764 326.14 201.063 327.371 200.705 328.931L200.701 328.926Z" fill="#840019"/>
<path d="M232.718 331.508C232.718 329.27 233.197 327.236 234.149 325.416C235.101 323.596 236.439 322.161 238.157 321.116C239.871 320.071 241.804 319.547 243.954 319.547C246.105 319.547 248.125 320.062 249.821 321.093C251.516 322.124 252.831 323.545 253.778 325.351C254.721 327.157 255.195 329.209 255.195 331.512C255.195 333.815 254.717 335.854 253.755 337.697C252.798 339.541 251.461 340.98 249.756 342.015C248.051 343.051 246.114 343.566 243.959 343.566C241.804 343.566 239.797 343.055 238.092 342.039C236.392 341.017 235.069 339.596 234.13 337.767C233.192 335.937 232.718 333.853 232.718 331.517V331.508ZM237.837 331.508C237.837 332.98 238.092 334.275 238.603 335.403C239.114 336.527 239.834 337.4 240.763 338.013C241.692 338.63 242.756 338.937 243.959 338.937C245.789 338.937 247.266 338.268 248.39 336.931C249.514 335.594 250.076 333.801 250.076 331.55C250.076 330.078 249.821 328.787 249.31 327.677C248.799 326.567 248.079 325.704 247.15 325.086C246.221 324.469 245.157 324.162 243.954 324.162C242.152 324.162 240.684 324.831 239.546 326.168C238.408 327.505 237.837 329.284 237.837 331.503V331.508Z" fill="#840019"/>
<path d="M257.55 324.204V320.67C257.55 320.517 257.601 320.392 257.708 320.285C257.815 320.178 257.94 320.127 258.089 320.127H262.218V318.367C262.218 315.66 263.063 313.543 264.754 312.011C266.445 310.478 269 309.712 272.409 309.712H274.207C274.355 309.712 274.485 309.763 274.587 309.87C274.694 309.977 274.745 310.102 274.745 310.256V313.789C274.745 313.942 274.694 314.068 274.587 314.174C274.481 314.281 274.355 314.332 274.207 314.332H272.637C270.602 314.332 269.195 314.685 268.414 315.386C267.634 316.088 267.248 317.22 267.248 318.776V320.122H273.849C273.997 320.122 274.128 320.174 274.23 320.28C274.337 320.387 274.388 320.513 274.388 320.666V324.199C274.388 324.352 274.337 324.478 274.23 324.585C274.123 324.691 273.997 324.743 273.849 324.743H267.248V342.475C267.248 342.624 267.197 342.749 267.09 342.856C266.984 342.963 266.858 343.014 266.71 343.014H262.757C262.608 343.014 262.478 342.963 262.376 342.856C262.269 342.754 262.218 342.624 262.218 342.475V324.743H258.089C257.94 324.743 257.81 324.691 257.708 324.585C257.601 324.478 257.55 324.352 257.55 324.199V324.204Z" fill="#840019"/>
<path d="M288.448 320.485C288.448 320.248 288.596 320.127 288.898 320.127H293.39C293.72 320.127 293.929 320.262 294.017 320.531L300.306 337.005L306.28 320.578C306.368 320.28 306.563 320.127 306.865 320.127H310.906C311.115 320.127 311.259 320.178 311.333 320.285C311.408 320.392 311.417 320.545 311.356 320.759L301.7 345.27C301.128 346.765 300.427 348.014 299.591 349.017C298.75 350.02 297.659 350.838 296.312 351.464C294.965 352.091 293.241 352.556 291.146 352.857C290.817 352.918 290.501 352.946 290.204 352.946C289.906 352.946 289.725 352.764 289.665 352.407L289.214 349.041V348.952C289.214 348.711 289.377 348.562 289.707 348.502L290.649 348.367C292.085 348.158 293.195 347.898 293.971 347.583C294.746 347.267 295.364 346.849 295.81 346.324C296.256 345.8 296.679 345.061 297.069 344.1L297.654 342.619L288.494 320.759C288.462 320.698 288.448 320.61 288.448 320.489V320.485Z" fill="#840019"/>
<path d="M313.238 331.508C313.238 329.27 313.716 327.236 314.668 325.416C315.621 323.596 316.958 322.161 318.677 321.116C320.391 320.071 322.323 319.547 324.474 319.547C326.624 319.547 328.645 320.062 330.34 321.093C332.036 322.124 333.35 323.545 334.298 325.351C335.241 327.157 335.715 329.209 335.715 331.512C335.715 333.815 335.236 335.854 334.275 337.697C333.318 339.541 331.98 340.98 330.275 342.015C328.571 343.051 326.634 343.566 324.478 343.566C322.323 343.566 320.317 343.055 318.612 342.039C316.912 341.017 315.588 339.596 314.65 337.767C313.712 335.937 313.238 333.853 313.238 331.517V331.508ZM318.357 331.508C318.357 332.98 318.612 334.275 319.123 335.403C319.634 336.527 320.354 337.4 321.283 338.013C322.212 338.63 323.275 338.937 324.478 338.937C326.309 338.937 327.786 338.268 328.91 336.931C330.034 335.594 330.596 333.801 330.596 331.55C330.596 330.078 330.34 328.787 329.829 327.677C329.319 326.567 328.599 325.704 327.67 325.086C326.741 324.469 325.677 324.162 324.474 324.162C322.672 324.162 321.204 324.831 320.066 326.168C318.928 327.505 318.357 329.284 318.357 331.503V331.508Z" fill="#840019"/>
<path d="M341.08 334.493V320.666C341.08 320.517 341.131 320.387 341.238 320.285C341.344 320.183 341.47 320.127 341.618 320.127H345.571C345.72 320.127 345.85 320.178 345.952 320.285C346.059 320.387 346.11 320.517 346.11 320.666V333.922C346.11 335.566 346.468 336.806 347.188 337.641C347.908 338.477 348.967 338.895 350.374 338.895C351.512 338.895 352.58 338.589 353.584 337.976C354.587 337.363 355.493 336.522 356.301 335.445V320.666C356.301 320.517 356.352 320.392 356.459 320.285C356.566 320.178 356.691 320.127 356.84 320.127H360.793C360.941 320.127 361.071 320.178 361.174 320.285C361.28 320.392 361.331 320.517 361.331 320.666V342.484C361.331 342.633 361.28 342.763 361.174 342.865C361.067 342.967 360.941 343.023 360.793 343.023H357.109C356.961 343.023 356.831 342.972 356.728 342.865C356.621 342.758 356.57 342.633 356.57 342.48V339.712C355.702 340.892 354.675 341.82 353.495 342.498C352.311 343.176 350.973 343.52 349.478 343.52C346.844 343.52 344.786 342.726 343.305 341.142C341.823 339.554 341.08 337.34 341.08 334.498V334.493Z" fill="#840019"/>
<path d="M368.066 342.484V320.666C368.066 320.517 368.117 320.387 368.224 320.285C368.331 320.183 368.457 320.127 368.605 320.127H372.377C372.526 320.127 372.656 320.178 372.758 320.285C372.865 320.392 372.916 320.517 372.916 320.666V323.986C373.993 322.848 375.108 321.919 376.26 321.204C377.412 320.489 378.661 319.946 380.008 319.589L380.19 319.542C380.399 319.542 380.547 319.691 380.64 319.992L381.495 324.079L381.541 324.26C381.541 324.501 381.393 324.65 381.091 324.71C379.535 324.951 378.113 325.337 376.827 325.876C375.54 326.414 374.295 327.162 373.101 328.118V342.484C373.101 342.633 373.05 342.763 372.944 342.865C372.837 342.967 372.711 343.023 372.563 343.023H368.61C368.461 343.023 368.331 342.972 368.229 342.865C368.127 342.758 368.071 342.633 368.071 342.484H368.066Z" fill="#840019"/>
<path d="M395.462 324.204V320.67C395.462 320.517 395.513 320.392 395.62 320.285C395.727 320.178 395.852 320.127 396.001 320.127H400.13V318.367C400.13 315.66 400.976 313.543 402.662 312.011C404.348 310.478 406.893 309.712 410.298 309.712H411.464C411.613 309.712 411.738 309.763 411.845 309.87C411.952 309.977 412.003 310.102 412.003 310.256V313.789C412.003 313.942 411.952 314.068 411.845 314.175C411.743 314.281 411.613 314.332 411.464 314.332H410.526C408.5 314.332 407.098 314.685 406.322 315.386C405.546 316.088 405.161 317.22 405.161 318.776V320.123H411.222C411.371 320.123 411.501 320.174 411.603 320.28C411.71 320.387 411.761 320.513 411.761 320.666V324.199C411.761 324.352 411.71 324.478 411.603 324.585C411.496 324.691 411.371 324.743 411.222 324.743H405.161V342.475C405.161 342.624 405.11 342.749 405.003 342.856C404.896 342.963 404.771 343.014 404.622 343.014H400.669C400.52 343.014 400.39 342.963 400.288 342.856C400.181 342.754 400.13 342.624 400.13 342.475V324.743H396.001C395.852 324.743 395.722 324.691 395.62 324.585C395.513 324.478 395.462 324.352 395.462 324.199V324.204ZM414.859 312.433C414.859 311.495 415.166 310.743 415.788 310.167C416.406 309.596 417.196 309.308 418.162 309.308C419.128 309.308 419.894 309.596 420.503 310.167C421.111 310.743 421.418 311.495 421.418 312.433C421.418 313.371 421.121 314.142 420.526 314.704C419.932 315.266 419.142 315.549 418.162 315.549C417.182 315.549 416.406 315.261 415.788 314.681C415.171 314.1 414.859 313.353 414.859 312.433ZM415.668 342.484V320.666C415.668 320.517 415.719 320.387 415.821 320.285C415.923 320.183 416.053 320.127 416.197 320.127H420.159C420.308 320.127 420.433 320.178 420.535 320.285C420.638 320.392 420.693 320.517 420.693 320.666V342.484C420.693 342.633 420.642 342.763 420.535 342.865C420.429 342.967 420.303 343.023 420.159 343.023H416.197C416.048 343.023 415.923 342.972 415.821 342.865C415.719 342.758 415.668 342.633 415.668 342.484Z" fill="#840019"/>
<path d="M427.48 342.484V320.666C427.48 320.517 427.531 320.387 427.637 320.285C427.744 320.183 427.87 320.127 428.018 320.127H431.79C431.939 320.127 432.069 320.178 432.171 320.285C432.278 320.392 432.329 320.517 432.329 320.666V323.359C433.495 322.1 434.716 321.158 435.989 320.531C437.262 319.904 438.632 319.589 440.1 319.589C442.613 319.589 444.573 320.396 445.985 322.012C447.392 323.628 448.094 325.829 448.094 328.61V342.48C448.094 342.628 448.043 342.758 447.936 342.86C447.829 342.963 447.703 343.018 447.555 343.018H443.602C443.453 343.018 443.323 342.967 443.221 342.86C443.119 342.754 443.063 342.628 443.063 342.48V329.014C443.063 327.519 442.724 326.344 442.051 325.49C441.377 324.636 440.383 324.213 439.064 324.213C436.788 324.213 434.605 325.439 432.505 327.895V342.484C432.505 342.633 432.454 342.763 432.347 342.865C432.241 342.967 432.115 343.023 431.966 343.023H428.014C427.865 343.023 427.735 342.972 427.633 342.865C427.531 342.758 427.475 342.633 427.475 342.484H427.48Z" fill="#840019"/>
<path d="M453.212 336.745C453.212 334.874 453.895 333.379 455.256 332.269C456.617 331.155 458.466 330.496 460.802 330.287L467.403 329.604V328.661C467.403 327.255 467.012 326.14 466.237 325.318C465.456 324.496 464.337 324.083 462.869 324.083C460.654 324.083 459.009 325.054 457.932 326.995C457.871 327.143 457.774 327.241 457.639 327.287C457.504 327.333 457.36 327.324 457.212 327.264L454.067 326.01C453.737 325.862 453.649 325.62 453.798 325.295C454.606 323.563 455.795 322.17 457.37 321.125C458.944 320.081 460.849 319.556 463.097 319.556C464.959 319.556 466.599 319.937 468.016 320.698C469.432 321.46 470.519 322.514 471.286 323.86C472.052 325.207 472.438 326.73 472.438 328.434V333.314C472.438 334.809 472.586 336.142 472.879 337.312C473.172 338.477 473.701 339.75 474.463 341.129C474.551 341.249 474.593 341.356 474.593 341.444C474.593 341.565 474.472 341.7 474.235 341.853L470.891 343.394C470.77 343.455 470.682 343.487 470.622 343.487C470.468 343.487 470.32 343.394 470.171 343.213C469.386 341.913 468.81 340.715 468.448 339.629C467.7 340.78 466.678 341.723 465.391 342.466C464.105 343.204 462.59 343.576 460.849 343.576C459.381 343.576 458.071 343.288 456.919 342.717C455.767 342.145 454.861 341.338 454.202 340.302C453.542 339.262 453.212 338.083 453.212 336.759V336.745ZM458.103 336.527C458.103 337.451 458.424 338.143 459.07 338.603C459.715 339.062 460.561 339.294 461.606 339.294C462.865 339.294 464.003 338.988 465.02 338.38C466.037 337.767 466.831 336.94 467.398 335.9V333.086L461.425 333.848C460.259 333.969 459.413 334.243 458.888 334.674C458.364 335.106 458.103 335.724 458.103 336.527Z" fill="#840019"/>
<path d="M478.941 342.484V320.666C478.941 320.517 478.992 320.387 479.099 320.285C479.205 320.183 479.331 320.127 479.48 320.127H483.251C483.4 320.127 483.53 320.178 483.632 320.285C483.739 320.392 483.79 320.517 483.79 320.666V323.359C484.956 322.1 486.177 321.158 487.45 320.531C488.723 319.904 490.093 319.589 491.561 319.589C494.074 319.589 496.034 320.396 497.446 322.012C498.853 323.628 499.555 325.829 499.555 328.61V342.48C499.555 342.628 499.504 342.758 499.397 342.86C499.29 342.967 499.165 343.018 499.016 343.018H495.063C494.915 343.018 494.785 342.967 494.682 342.86C494.58 342.754 494.524 342.628 494.524 342.48V329.014C494.524 327.519 494.185 326.344 493.512 325.49C492.838 324.636 491.844 324.213 490.525 324.213C488.249 324.213 486.066 325.439 483.967 327.895V342.484C483.967 342.633 483.915 342.763 483.809 342.865C483.702 342.967 483.576 343.023 483.428 343.023H479.475C479.326 343.023 479.196 342.972 479.094 342.865C478.992 342.758 478.936 342.633 478.936 342.484H478.941Z" fill="#840019"/>
<path d="M504.854 331.508C504.854 329.237 505.328 327.194 506.28 325.369C507.233 323.545 508.561 322.119 510.275 321.088C511.989 320.058 513.926 319.542 516.081 319.542C518.237 319.542 520.173 320.053 521.627 321.07C523.081 322.087 524.196 323.466 524.972 325.198C525.032 325.318 525.06 325.407 525.06 325.467C525.06 325.676 524.939 325.824 524.702 325.917L521.423 327.31C521.363 327.343 521.274 327.357 521.153 327.357C520.944 327.357 520.796 327.25 520.703 327.036C519.625 325.123 518.083 324.167 516.077 324.167C514.878 324.167 513.815 324.483 512.89 325.114C511.961 325.745 511.241 326.614 510.735 327.724C510.224 328.833 509.973 330.096 509.973 331.508C509.973 332.919 510.229 334.275 510.735 335.403C511.241 336.527 511.961 337.4 512.89 338.013C513.819 338.63 514.864 338.937 516.035 338.937C518.223 338.937 519.895 337.948 521.065 335.965C521.246 335.663 521.497 335.589 521.827 335.738L524.972 337.131C525.12 337.191 525.227 337.275 525.287 337.377C525.348 337.484 525.348 337.595 525.287 337.716C524.507 339.485 523.341 340.901 521.785 341.964C520.229 343.028 518.311 343.562 516.035 343.562C513.759 343.562 511.868 343.046 510.187 342.011C508.505 340.975 507.191 339.545 506.257 337.716C505.324 335.886 504.854 333.82 504.854 331.508Z" fill="#840019"/>
<path d="M528.79 331.485C528.79 329.27 529.259 327.259 530.206 325.448C531.149 323.637 532.459 322.207 534.136 321.163C535.813 320.118 537.727 319.593 539.887 319.593C541.893 319.593 543.667 320.058 545.21 320.986C546.752 321.915 547.95 323.21 548.8 324.868C549.655 326.53 550.077 328.406 550.077 330.5C550.077 330.858 550.045 331.457 549.989 332.297C549.929 332.627 549.734 332.789 549.404 332.789H533.82C534.029 334.795 534.731 336.351 535.929 337.456C537.127 338.566 538.609 339.118 540.374 339.118C542.618 339.118 544.341 338.222 545.539 336.425C545.72 336.095 545.957 336.021 546.259 336.202L549.311 337.73C549.641 337.911 549.743 338.106 549.627 338.315C548.786 339.931 547.574 341.212 545.99 342.155C544.401 343.097 542.502 343.566 540.286 343.566C538.07 343.566 536.087 343.065 534.336 342.062C532.585 341.059 531.224 339.638 530.248 337.795C529.278 335.956 528.79 333.853 528.79 331.489V331.485ZM533.955 328.926H545.182C545.001 327.31 544.425 326.061 543.454 325.179C542.483 324.297 541.275 323.856 539.84 323.856C538.405 323.856 537.113 324.311 536.068 325.225C535.019 326.14 534.317 327.371 533.96 328.931L533.955 328.926Z" fill="#840019"/>
<path d="M348.189 102.14C320.64 124.957 285.255 136.101 249.596 133.185C225.163 131.644 204.768 120.686 189.193 106.004C183.577 100.71 166.266 136.292 156.539 136.278C143.069 136.254 129.673 113.252 127.653 100.306H129.622C135.428 110.433 143.966 118.257 153.692 123.95C156.502 125.593 165.55 106.403 176.935 92.8911C187.149 80.7676 195.896 91.4378 197.717 92.5939C208.405 99.3824 220.834 104.142 234.309 105.59C266.824 109.532 305.79 94.7531 326.985 74.5457L303.323 56.3116H374.804L359.011 132.205L348.658 102.637L348.184 102.145L348.189 102.14Z" fill="#EB0033"/>
<path d="M218.79 56.502C241.611 56.502 257.45 35.8349 257.45 18.9289C257.45 6.31318 245.903 0.945587 234.63 0.945587C209.654 0.945587 195.97 23.2332 195.97 38.5187C195.97 51.1344 207.782 56.502 218.79 56.502Z" fill="#EB0033"/>
<path d="M280.011 56.502C302.831 56.502 318.67 35.8349 318.67 18.9289C318.67 6.31318 306.858 0.945587 295.58 0.945587C270.614 0.945587 256.921 23.2192 256.921 38.5187C256.921 51.1344 269.002 56.502 280.011 56.502Z" fill="#EB0033"/>
</svg>
