<svg width="558" height="353" viewBox="0 0 558 353" fill="var(--icon-bg, transparent)" xmlns="http://www.w3.org/2000/svg">
<path d="M0.237671 278.263V212.18C0.237671 211.293 0.683583 210.848 1.57076 210.848H12.7139C13.6011 210.848 14.047 211.293 14.047 212.18V278.263C14.047 279.154 13.6011 279.595 12.7139 279.595H1.57076C0.683583 279.595 0.237671 279.15 0.237671 278.263Z" fill="white"/>
<path d="M21.8644 255.126C21.8644 250.236 22.9049 245.839 24.9811 241.939C27.0621 238.034 29.9651 234.988 33.695 232.796C37.4249 230.605 41.675 229.509 46.436 229.509C51.4525 229.509 55.5819 230.651 58.8194 232.936C62.0569 235.22 64.5326 238.298 66.2512 242.171C66.3163 242.296 66.3488 242.487 66.3488 242.742C66.3488 243.188 66.0608 243.569 65.4895 243.884L56.9149 247.408C56.5341 247.534 56.3111 247.599 56.2461 247.599C55.8652 247.599 55.5168 247.311 55.1963 246.74C53.2269 243.183 50.3052 241.409 46.4314 241.409C43.0638 241.409 40.3372 242.682 38.2377 245.217C36.1429 247.757 35.0931 251.026 35.0931 255.023C35.0931 259.021 36.1429 262.578 38.2377 265.118C40.3326 267.658 43.0638 268.925 46.4314 268.925C50.6211 268.925 53.7982 267.087 55.9581 263.404C56.339 262.643 56.9103 262.42 57.6721 262.736L66.149 266.26C66.595 266.45 66.8783 266.659 67.0084 266.878C67.1338 267.1 67.1338 267.37 67.0084 267.686C65.2293 271.623 62.6282 274.794 59.1956 277.209C55.763 279.623 51.5129 280.826 46.4314 280.826C41.3498 280.826 37.3273 279.73 33.5928 277.538C29.8629 275.347 26.9692 272.301 24.9254 268.396C22.877 264.491 21.8551 260.066 21.8551 255.112L21.8644 255.126Z" fill="white"/>
<path d="M69.3076 266.348C69.3076 262.262 70.7986 258.975 73.7853 256.486C76.772 253.997 80.8038 252.53 85.8853 252.08L99.1234 250.835V249.405C99.1234 246.74 98.3755 244.646 96.8845 243.118C95.3935 241.595 93.215 240.834 90.3584 240.834C86.2291 240.834 83.0566 242.584 80.8317 246.09C80.4508 246.856 79.8795 247.079 79.1177 246.758L71.1145 243.708C70.7336 243.582 70.4781 243.36 70.3527 243.039C70.2273 242.723 70.2552 242.371 70.4503 241.99C72.1642 238.178 74.77 235.141 78.263 232.884C81.756 230.628 86.0433 229.5 91.1248 229.5C95.3145 229.5 98.9654 230.326 102.078 231.979C105.19 233.632 107.586 235.935 109.268 238.893C110.949 241.851 111.79 245.203 111.79 248.95V258.218C111.79 261.454 112.124 264.328 112.789 266.836C113.453 269.343 114.582 271.994 116.17 274.785C116.361 275.036 116.458 275.319 116.458 275.635C116.458 275.951 116.203 276.266 115.696 276.577L106.931 280.636C106.806 280.696 106.616 280.728 106.36 280.728C105.789 280.728 105.375 280.51 105.12 280.069C103.596 277.743 102.421 275.319 101.594 272.802C100.006 275.129 97.8971 277.051 95.2588 278.56C92.6251 280.069 89.4944 280.826 85.876 280.826C82.6989 280.826 79.8423 280.208 77.3015 278.978C74.7608 277.747 72.7913 276.025 71.3978 273.819C69.9997 271.609 69.303 269.116 69.303 266.339L69.3076 266.348ZM81.7839 265.438C81.7839 267.11 82.3877 268.363 83.5954 269.199C84.8031 270.035 86.3591 270.453 88.2635 270.453C90.6742 270.453 92.8202 269.91 94.6921 268.814C96.564 267.723 98.0411 266.246 99.1234 264.384V258.989L87.4971 260.419C85.5277 260.674 84.0877 261.208 83.1681 262.011C82.2484 262.815 81.7885 263.957 81.7885 265.438H81.7839Z" fill="white"/>
<path d="M121.224 278.263V232.081C121.224 231.194 121.67 230.749 122.557 230.749H132.367C133.254 230.749 133.7 231.194 133.7 232.081V238.558C135.92 236.274 138.192 234.384 140.51 232.894C142.827 231.403 145.35 230.275 148.081 229.513L148.462 229.416C149.098 229.416 149.511 229.797 149.702 230.558L151.704 241.224L151.801 241.702C151.801 242.273 151.42 242.621 150.659 242.751C147.291 243.197 144.277 243.926 141.61 244.943C138.944 245.96 136.468 247.357 134.179 249.131V278.267C134.179 279.159 133.733 279.6 132.845 279.6H122.557C121.665 279.6 121.224 279.154 121.224 278.267V278.263Z" fill="white"/>
<path d="M152.568 255.033C152.568 250.208 153.567 245.862 155.568 241.985C157.57 238.113 160.395 235.067 164.045 232.843C167.696 230.623 171.872 229.509 176.573 229.509C181.018 229.509 184.906 230.526 188.241 232.555C191.576 234.588 194.163 237.379 196.002 240.936C197.842 244.493 198.766 248.555 198.766 253.124C198.766 253.951 198.701 255.251 198.576 257.029C198.511 257.856 198.037 258.269 197.145 258.269H165.615C166.061 261.886 167.394 264.714 169.615 266.743C171.835 268.777 174.599 269.789 177.901 269.789C182.091 269.789 185.333 268.108 187.618 264.742C188.125 264.045 188.729 263.883 189.43 264.263L197.243 267.978C198.069 268.424 198.353 268.897 198.102 269.408C196.323 272.9 193.689 275.677 190.196 277.738C186.703 279.8 182.449 280.835 177.432 280.835C172.416 280.835 168.319 279.753 164.57 277.599C160.822 275.44 157.886 272.408 155.759 268.507C153.632 264.602 152.568 260.112 152.568 255.033ZM165.811 249.224H186.29C185.974 246.243 184.924 243.94 183.145 242.319C181.366 240.699 179.146 239.891 176.475 239.891C173.804 239.891 171.538 240.732 169.666 242.412C167.794 244.093 166.507 246.364 165.806 249.219L165.811 249.224Z" fill="white"/>
<path d="M227.546 278.263V212.18C227.546 211.293 227.992 210.848 228.879 210.848H272.982C273.87 210.848 274.316 211.293 274.316 212.189V222.456C274.316 223.352 273.87 223.798 272.978 223.798H240.974V241.317H268.691C269.582 241.317 270.028 241.762 270.028 242.658V252.925C270.028 253.821 269.582 254.267 268.691 254.267H240.974V278.267C240.974 279.154 240.533 279.595 239.651 279.595H228.87C227.987 279.595 227.546 279.15 227.546 278.263Z" fill="white"/>
<path d="M279.75 214.753C279.75 212.533 280.503 210.736 282.003 209.371C283.503 208.006 285.468 207.323 287.897 207.323C290.327 207.323 292.222 208.006 293.671 209.371C295.125 210.736 295.85 212.561 295.85 214.845C295.85 217.13 295.125 218.973 293.671 220.366C292.217 221.764 290.294 222.46 287.897 222.46C285.501 222.46 283.503 221.764 282.003 220.366C280.503 218.969 279.75 217.097 279.75 214.748V214.753ZM281.464 278.263V232.081C281.464 231.194 281.905 230.749 282.788 230.749H293.095C293.978 230.749 294.419 231.194 294.419 232.081V278.263C294.419 279.154 293.978 279.595 293.095 279.595H282.788C281.905 279.595 281.464 279.15 281.464 278.263Z" fill="white"/>
<path d="M303.853 278.263V232.081C303.853 231.194 304.299 230.749 305.186 230.749H314.996C315.883 230.749 316.329 231.194 316.329 232.081V237.221C318.805 234.556 321.359 232.601 323.998 231.366C326.631 230.126 329.474 229.509 332.521 229.509C338.044 229.509 342.317 231.269 345.332 234.793C348.346 238.317 349.856 243.123 349.856 249.219V278.263C349.856 279.154 349.41 279.595 348.523 279.595H338.234C337.343 279.595 336.901 279.15 336.901 278.263V250.362C336.901 247.571 336.265 245.379 334.997 243.791C333.724 242.203 331.852 241.409 329.377 241.409C327.282 241.409 325.168 241.981 323.041 243.123C320.914 244.265 318.833 245.978 316.803 248.263V278.258C316.803 279.15 316.357 279.591 315.47 279.591H305.181C304.289 279.591 303.848 279.145 303.848 278.258L303.853 278.263Z" fill="white"/>
<path d="M356.155 266.348C356.155 262.262 357.646 258.975 360.632 256.486C363.619 253.997 367.651 252.53 372.732 252.08L385.97 250.835V249.405C385.97 246.74 385.222 244.646 383.731 243.118C382.24 241.595 380.062 240.834 377.205 240.834C373.076 240.834 369.904 242.584 367.679 246.09C367.298 246.856 366.726 247.079 365.965 246.758L357.961 243.708C357.581 243.582 357.325 243.36 357.2 243.039C357.074 242.723 357.102 242.371 357.297 241.99C359.011 238.178 361.617 235.141 365.11 232.884C368.603 230.628 372.89 229.5 377.972 229.5C382.161 229.5 385.812 230.326 388.924 231.979C392.037 233.632 394.433 235.935 396.115 238.893C397.796 241.851 398.637 245.203 398.637 248.95V258.218C398.637 261.454 398.971 264.328 399.636 266.836C400.3 269.343 401.429 271.994 403.017 274.785C403.208 275.036 403.305 275.319 403.305 275.635C403.305 275.951 403.05 276.266 402.543 276.577L393.778 280.636C393.653 280.696 393.463 280.728 393.207 280.728C392.636 280.728 392.222 280.51 391.967 280.069C390.443 277.743 389.268 275.319 388.441 272.802C386.853 275.129 384.744 277.051 382.106 278.56C379.472 280.069 376.341 280.826 372.723 280.826C369.546 280.826 366.689 280.208 364.148 278.978C361.608 277.747 359.638 276.025 358.245 273.819C356.847 271.609 356.15 269.116 356.15 266.339L356.155 266.348ZM368.631 265.438C368.631 267.11 369.235 268.363 370.442 269.199C371.65 270.035 373.206 270.453 375.11 270.453C377.521 270.453 379.667 269.91 381.539 268.814C383.411 267.723 384.888 266.246 385.97 264.384V258.989L374.344 260.419C372.375 260.674 370.935 261.208 370.015 262.011C369.095 262.815 368.635 263.957 368.635 265.438H368.631Z" fill="white"/>
<path d="M408.071 278.263V232.081C408.071 231.194 408.517 230.749 409.404 230.749H419.214C420.101 230.749 420.547 231.194 420.547 232.081V237.221C423.023 234.556 425.578 232.601 428.216 231.366C430.849 230.126 433.692 229.509 436.739 229.509C442.262 229.509 446.535 231.269 449.55 234.793C452.564 238.317 454.074 243.123 454.074 249.219V278.263C454.074 279.154 453.628 279.595 452.741 279.595H442.452C441.561 279.595 441.119 279.15 441.119 278.263V250.362C441.119 247.571 440.483 245.379 439.215 243.791C437.942 242.203 436.07 241.409 433.595 241.409C431.5 241.409 429.386 241.981 427.259 243.123C425.132 244.265 423.051 245.978 421.021 248.263V278.258C421.021 279.15 420.575 279.591 419.688 279.591H409.399C408.507 279.591 408.066 279.145 408.066 278.258L408.071 278.263Z" fill="white"/>
<path d="M460.753 255.126C460.753 250.236 461.794 245.839 463.87 241.939C465.946 238.034 468.854 234.988 472.584 232.796C476.314 230.605 480.564 229.509 485.325 229.509C490.342 229.509 494.471 230.651 497.708 232.936C500.946 235.22 503.422 238.298 505.14 242.171C505.205 242.296 505.238 242.487 505.238 242.742C505.238 243.188 504.95 243.569 504.379 243.884L495.804 247.408C495.423 247.534 495.2 247.599 495.135 247.599C494.754 247.599 494.406 247.311 494.085 246.74C492.116 243.183 489.194 241.409 485.32 241.409C481.953 241.409 479.226 242.682 477.127 245.217C475.032 247.757 473.982 251.026 473.982 255.023C473.982 259.021 475.032 262.578 477.127 265.118C479.222 267.658 481.953 268.925 485.32 268.925C489.51 268.925 492.687 267.087 494.847 263.404C495.228 262.643 495.799 262.42 496.561 262.736L505.038 266.26C505.484 266.45 505.767 266.659 505.897 266.878C506.023 267.1 506.023 267.37 505.897 267.686C504.118 271.623 501.517 274.794 498.085 277.209C494.652 279.623 490.402 280.826 485.32 280.826C480.239 280.826 476.216 279.73 472.482 277.538C468.747 275.347 465.858 272.301 463.814 268.396C461.766 264.491 460.744 260.066 460.744 255.112L460.753 255.126Z" fill="white"/>
<path d="M508.578 255.033C508.578 250.208 509.576 245.862 511.578 241.985C513.58 238.113 516.404 235.067 520.055 232.843C523.706 230.623 527.882 229.509 532.583 229.509C537.028 229.509 540.916 230.526 544.251 232.555C547.586 234.588 550.173 237.379 552.012 240.936C553.852 244.493 554.776 248.555 554.776 253.124C554.776 253.951 554.711 255.251 554.586 257.029C554.52 257.856 554.047 258.269 553.155 258.269H521.625C522.071 261.886 523.404 264.714 525.624 266.743C527.845 268.777 530.608 269.789 533.911 269.789C538.101 269.789 541.343 268.108 543.628 264.742C544.134 264.045 544.738 263.883 545.44 264.263L553.252 267.978C554.079 268.424 554.363 268.897 554.112 269.408C552.333 272.9 549.699 275.677 546.206 277.738C542.713 279.8 538.458 280.835 533.442 280.835C528.425 280.835 524.329 279.753 520.58 277.599C516.832 275.44 513.896 272.408 511.769 268.507C509.641 264.602 508.578 260.112 508.578 255.033ZM521.816 249.224H542.295C541.979 246.243 540.929 243.94 539.15 242.319C537.371 240.699 535.151 239.891 532.48 239.891C529.81 239.891 527.543 240.732 525.671 242.412C523.799 244.093 522.512 246.364 521.811 249.219L521.816 249.224Z" fill="white"/>
<path d="M2.12354 342.507V311.174C2.12354 311.026 2.17463 310.896 2.28146 310.793C2.3883 310.691 2.51371 310.635 2.66235 310.635H6.92638C7.07502 310.635 7.20508 310.687 7.30726 310.793C7.4141 310.9 7.46519 311.026 7.46519 311.174V342.507C7.46519 342.655 7.4141 342.785 7.30726 342.887C7.20043 342.99 7.07502 343.045 6.92638 343.045H2.66235C2.51371 343.045 2.38365 342.994 2.28146 342.887C2.17927 342.781 2.12354 342.655 2.12354 342.507Z" fill="#840019"/>
<path d="M23.95 324.226V320.693C23.95 320.539 24.0011 320.414 24.1079 320.307C24.2147 320.2 24.3401 320.149 24.4888 320.149H28.6645V314.132C28.6645 313.983 28.7156 313.858 28.8225 313.751C28.9293 313.649 29.0547 313.593 29.2034 313.593H33.1562C33.3048 313.593 33.4349 313.644 33.5371 313.751C33.6439 313.853 33.695 313.983 33.695 314.132V320.149H40.4766C40.6252 320.149 40.7553 320.2 40.8575 320.307C40.9643 320.414 41.0154 320.539 41.0154 320.693V324.226C41.0154 324.379 40.9643 324.505 40.8575 324.612C40.7506 324.718 40.6252 324.769 40.4766 324.769H33.695V333.359C33.695 334.553 33.8576 335.509 34.1874 336.224C34.5171 336.939 35.0931 337.478 35.9153 337.835C36.7374 338.193 37.8847 338.374 39.3525 338.374H40.6531C40.8017 338.374 40.9318 338.425 41.034 338.532C41.1408 338.639 41.1919 338.764 41.1919 338.913V342.548C41.1919 342.697 41.1408 342.827 41.034 342.929C40.9271 343.036 40.8017 343.087 40.6531 343.087H38.8555C35.3811 343.087 32.8171 342.302 31.1542 340.738C29.4913 339.168 28.6599 336.939 28.6599 334.042V324.774H24.4841C24.3355 324.774 24.2054 324.723 24.1032 324.616C23.9964 324.509 23.9453 324.384 23.9453 324.231L23.95 324.226Z" fill="#840019"/>
<path d="M44.5594 336.768C44.5594 334.896 45.2423 333.401 46.6032 332.291C47.9642 331.177 49.8129 330.518 52.1492 330.309L58.7497 329.626V328.684C58.7497 327.277 58.3595 326.162 57.5838 325.341C56.8035 324.519 55.684 324.105 54.2162 324.105C52.0006 324.105 50.3563 325.076 49.2787 327.017C49.2183 327.165 49.1208 327.263 48.9861 327.309C48.8514 327.356 48.7074 327.346 48.5587 327.286L45.4141 326.032C45.0843 325.884 44.9961 325.642 45.1447 325.317C45.9529 323.585 47.142 322.192 48.7167 321.148C50.2913 320.103 52.1957 319.578 54.4438 319.578C56.3064 319.578 57.9461 319.959 59.3628 320.72C60.7795 321.482 61.8664 322.536 62.6328 323.883C63.3992 325.229 63.7848 326.752 63.7848 328.456V333.336C63.7848 334.831 63.9334 336.164 64.226 337.334C64.5187 338.499 65.0482 339.772 65.8099 341.151C65.8982 341.271 65.94 341.378 65.94 341.466C65.94 341.587 65.8192 341.722 65.5823 341.875L62.238 343.417C62.1172 343.477 62.029 343.51 61.9686 343.51C61.8153 343.51 61.6667 343.417 61.518 343.236C60.733 341.935 60.1571 340.738 59.7948 339.651C59.0469 340.803 58.0251 341.745 56.7384 342.488C55.4518 343.226 53.9375 343.598 52.1957 343.598C50.7279 343.598 49.418 343.31 48.2661 342.739C47.1142 342.168 46.2084 341.36 45.5488 340.324C44.8892 339.284 44.5594 338.105 44.5594 336.781V336.768ZM49.4552 336.549C49.4552 337.473 49.7757 338.165 50.4213 338.625C51.067 339.085 51.9124 339.317 52.9575 339.317C54.2162 339.317 55.3542 339.01 56.3715 338.402C57.3887 337.789 58.183 336.963 58.7497 335.922V333.109L52.7763 333.87C51.6104 333.991 50.7651 334.265 50.2402 334.697C49.7153 335.128 49.4552 335.746 49.4552 336.549Z" fill="#840019"/>
<path d="M70.2925 342.507V310.32C70.2925 310.171 70.3436 310.041 70.4504 309.939C70.5572 309.837 70.6826 309.781 70.8313 309.781H74.7841C74.9328 309.781 75.0628 309.832 75.165 309.939C75.2672 310.046 75.3229 310.171 75.3229 310.32V329.849L85.1562 320.423C85.3374 320.242 85.5603 320.154 85.8297 320.154H90.902C91.2318 320.154 91.3943 320.261 91.3943 320.47C91.3943 320.558 91.32 320.679 91.1714 320.827L82.1881 329.176L91.5755 342.372C91.6637 342.493 91.7102 342.595 91.7102 342.688C91.7102 342.929 91.543 343.045 91.2178 343.045H86.2803C86.0109 343.045 85.8019 342.925 85.6532 342.688L78.3793 332.227L75.3276 335.101V342.507C75.3276 342.655 75.2765 342.785 75.1696 342.887C75.0628 342.99 74.9374 343.045 74.7888 343.045H70.8359C70.6873 343.045 70.5572 342.994 70.455 342.887C70.3529 342.781 70.2971 342.655 70.2971 342.507H70.2925Z" fill="#840019"/>
<path d="M93.2383 331.507C93.2383 329.292 93.7074 327.281 94.6503 325.471C95.5933 323.66 96.9031 322.23 98.5799 321.185C100.257 320.14 102.17 319.615 104.33 319.615C106.337 319.615 108.111 320.08 109.653 321.008C111.196 321.937 112.394 323.233 113.244 324.89C114.099 326.552 114.526 328.428 114.526 330.522C114.526 330.88 114.493 331.479 114.438 332.319C114.377 332.649 114.182 332.812 113.852 332.812H98.2687C98.4777 334.817 99.1791 336.373 100.378 337.478C101.576 338.588 103.058 339.14 104.823 339.14C107.066 339.14 108.789 338.244 109.988 336.447C110.169 336.118 110.406 336.043 110.708 336.224L113.76 337.752C114.089 337.933 114.192 338.128 114.075 338.337C113.235 339.953 112.022 341.234 110.438 342.177C108.85 343.12 106.95 343.589 104.734 343.589C102.519 343.589 100.535 343.087 98.7843 342.084C97.0332 341.081 95.6722 339.66 94.6968 337.817C93.726 335.978 93.2383 333.875 93.2383 331.511V331.507ZM98.4034 328.948H109.63C109.449 327.333 108.873 326.084 107.902 325.201C106.931 324.319 105.724 323.878 104.289 323.878C102.853 323.878 101.562 324.333 100.517 325.248C99.4671 326.162 98.7657 327.393 98.4081 328.953L98.4034 328.948Z" fill="#840019"/>
<path d="M130.421 331.53C130.421 329.259 130.895 327.216 131.847 325.392C132.799 323.567 134.128 322.141 135.842 321.111C137.555 320.08 139.492 319.564 141.648 319.564C143.803 319.564 145.74 320.075 147.194 321.092C148.648 322.109 149.762 323.488 150.538 325.22C150.598 325.341 150.626 325.429 150.626 325.489C150.626 325.698 150.506 325.847 150.269 325.939L146.989 327.332C146.929 327.365 146.841 327.379 146.72 327.379C146.511 327.379 146.362 327.272 146.269 327.059C145.192 325.146 143.65 324.189 141.643 324.189C140.445 324.189 139.381 324.505 138.457 325.136C137.528 325.768 136.808 326.636 136.301 327.746C135.79 328.855 135.54 330.118 135.54 331.53C135.54 332.942 135.795 334.297 136.301 335.426C136.808 336.549 137.528 337.422 138.457 338.035C139.386 338.653 140.431 338.959 141.601 338.959C143.784 338.959 145.461 337.97 146.632 335.987C146.813 335.686 147.064 335.611 147.393 335.76L150.538 337.153C150.687 337.213 150.794 337.297 150.854 337.399C150.914 337.506 150.914 337.617 150.854 337.738C150.074 339.507 148.908 340.923 147.352 341.987C145.796 343.05 143.877 343.584 141.601 343.584C139.325 343.584 137.435 343.068 135.753 342.033C134.072 340.998 132.757 339.567 131.824 337.738C130.89 335.909 130.421 333.842 130.421 331.53Z" fill="#840019"/>
<path d="M154.133 336.768C154.133 334.896 154.816 333.401 156.177 332.291C157.538 331.177 159.386 330.518 161.723 330.309L168.323 329.626V328.684C168.323 327.277 167.933 326.162 167.157 325.341C166.377 324.519 165.258 324.105 163.79 324.105C161.574 324.105 159.93 325.076 158.852 327.017C158.792 327.165 158.694 327.263 158.56 327.309C158.425 327.356 158.281 327.346 158.132 327.286L154.988 326.032C154.658 325.884 154.57 325.642 154.718 325.317C155.527 323.585 156.716 322.192 158.29 321.148C159.865 320.103 161.769 319.578 164.017 319.578C165.88 319.578 167.52 319.959 168.936 320.72C170.353 321.482 171.44 322.536 172.206 323.883C172.973 325.229 173.358 326.752 173.358 328.456V333.336C173.358 334.831 173.507 336.164 173.8 337.334C174.092 338.499 174.622 339.772 175.384 341.151C175.472 341.271 175.514 341.378 175.514 341.466C175.514 341.587 175.393 341.722 175.156 341.875L171.812 343.417C171.691 343.477 171.603 343.51 171.542 343.51C171.389 343.51 171.24 343.417 171.092 343.236C170.307 341.935 169.731 340.738 169.368 339.651C168.621 340.803 167.599 341.745 166.312 342.488C165.025 343.226 163.511 343.598 161.769 343.598C160.302 343.598 158.992 343.31 157.84 342.739C156.688 342.168 155.782 341.36 155.122 340.324C154.463 339.284 154.133 338.105 154.133 336.781V336.768ZM159.029 336.549C159.029 337.473 159.349 338.165 159.995 338.625C160.641 339.085 161.486 339.317 162.531 339.317C163.79 339.317 164.928 339.01 165.945 338.402C166.962 337.789 167.757 336.963 168.323 335.922V333.109L162.35 333.87C161.184 333.991 160.339 334.265 159.814 334.697C159.289 335.128 159.029 335.746 159.029 336.549Z" fill="#840019"/>
<path d="M179.866 342.507V320.688C179.866 320.539 179.917 320.409 180.024 320.307C180.131 320.205 180.256 320.149 180.405 320.149H184.176C184.325 320.149 184.455 320.2 184.557 320.307C184.664 320.414 184.715 320.539 184.715 320.688V324.008C185.793 322.87 186.908 321.942 188.06 321.227C189.212 320.512 190.461 319.968 191.808 319.611L191.989 319.564C192.198 319.564 192.347 319.713 192.44 320.015L193.294 324.101L193.341 324.282C193.341 324.523 193.192 324.672 192.89 324.732C191.334 324.974 189.913 325.359 188.626 325.898C187.34 326.436 186.095 327.184 184.901 328.14V342.507C184.901 342.655 184.85 342.785 184.743 342.887C184.636 342.989 184.511 343.045 184.362 343.045H180.409C180.261 343.045 180.131 342.994 180.029 342.887C179.926 342.781 179.871 342.655 179.871 342.507H179.866Z" fill="#840019"/>
<path d="M195.538 331.507C195.538 329.292 196.007 327.281 196.95 325.471C197.893 323.66 199.203 322.23 200.879 321.185C202.556 320.14 204.47 319.615 206.63 319.615C208.637 319.615 210.411 320.08 211.953 321.008C213.495 321.937 214.693 323.233 215.544 324.89C216.398 326.552 216.826 328.428 216.826 330.522C216.826 330.88 216.793 331.479 216.737 332.319C216.677 332.649 216.482 332.812 216.152 332.812H200.568C200.777 334.817 201.479 336.373 202.677 337.478C203.875 338.588 205.357 339.14 207.122 339.14C209.366 339.14 211.089 338.244 212.287 336.447C212.469 336.118 212.705 336.043 213.007 336.224L216.059 337.752C216.389 337.933 216.491 338.128 216.375 338.337C215.534 339.953 214.322 341.234 212.738 342.177C211.149 343.12 209.25 343.589 207.034 343.589C204.818 343.589 202.835 343.087 201.084 342.084C199.333 341.081 197.972 339.66 196.996 337.817C196.026 335.978 195.538 333.875 195.538 331.511V331.507ZM200.703 328.948H211.93C211.749 327.333 211.173 326.084 210.202 325.201C209.231 324.319 208.023 323.878 206.588 323.878C205.153 323.878 203.862 324.333 202.816 325.248C201.767 326.162 201.065 327.393 200.708 328.953L200.703 328.948Z" fill="#840019"/>
<path d="M232.72 331.53C232.72 329.292 233.199 327.258 234.151 325.438C235.103 323.618 236.441 322.183 238.16 321.139C239.874 320.094 241.806 319.569 243.957 319.569C246.107 319.569 248.128 320.084 249.823 321.115C251.518 322.146 252.833 323.567 253.781 325.373C254.723 327.179 255.197 329.232 255.197 331.535C255.197 333.838 254.719 335.876 253.757 337.72C252.8 339.563 251.463 341.002 249.758 342.038C248.053 343.073 246.116 343.589 243.961 343.589C241.806 343.589 239.799 343.078 238.095 342.061C236.395 341.039 235.071 339.619 234.133 337.789C233.194 335.96 232.72 333.875 232.72 331.539V331.53ZM237.839 331.53C237.839 333.002 238.095 334.297 238.606 335.426C239.117 336.549 239.836 337.422 240.765 338.035C241.694 338.653 242.758 338.959 243.961 338.959C245.791 338.959 247.268 338.291 248.392 336.953C249.516 335.616 250.079 333.824 250.079 331.572C250.079 330.1 249.823 328.809 249.312 327.699C248.801 326.59 248.081 325.726 247.152 325.108C246.223 324.491 245.16 324.184 243.957 324.184C242.154 324.184 240.686 324.853 239.548 326.19C238.41 327.528 237.839 329.306 237.839 331.525V331.53Z" fill="#840019"/>
<path d="M257.552 324.226V320.693C257.552 320.539 257.603 320.414 257.71 320.307C257.817 320.2 257.942 320.149 258.091 320.149H262.22V318.39C262.22 315.683 263.066 313.565 264.757 312.033C266.447 310.501 269.002 309.735 272.411 309.735H274.209C274.358 309.735 274.488 309.786 274.59 309.892C274.697 309.999 274.748 310.125 274.748 310.278V313.811C274.748 313.965 274.697 314.09 274.59 314.197C274.483 314.304 274.358 314.355 274.209 314.355H272.639C270.604 314.355 269.197 314.708 268.417 315.409C267.636 316.11 267.251 317.243 267.251 318.798V320.145H273.851C274 320.145 274.13 320.196 274.232 320.303C274.339 320.409 274.39 320.535 274.39 320.688V324.222C274.39 324.375 274.339 324.5 274.232 324.607C274.125 324.714 274 324.765 273.851 324.765H267.251V342.497C267.251 342.646 267.2 342.771 267.093 342.878C266.986 342.985 266.861 343.036 266.712 343.036H262.759C262.611 343.036 262.481 342.985 262.378 342.878C262.271 342.776 262.22 342.646 262.22 342.497V324.765H258.091C257.942 324.765 257.812 324.714 257.71 324.607C257.603 324.5 257.552 324.375 257.552 324.222V324.226Z" fill="#840019"/>
<path d="M288.45 320.507C288.45 320.27 288.599 320.149 288.901 320.149H293.392C293.722 320.149 293.931 320.284 294.019 320.553L300.309 337.028L306.282 320.6C306.37 320.303 306.565 320.149 306.867 320.149H310.908C311.117 320.149 311.261 320.2 311.336 320.307C311.41 320.414 311.419 320.567 311.359 320.781L301.702 345.293C301.131 346.788 300.429 348.037 299.593 349.04C298.753 350.043 297.661 350.86 296.314 351.487C294.967 352.113 293.244 352.578 291.149 352.88C290.819 352.94 290.503 352.968 290.206 352.968C289.909 352.968 289.728 352.787 289.667 352.429L289.217 349.063V348.975C289.217 348.733 289.379 348.585 289.709 348.524L290.652 348.39C292.087 348.181 293.197 347.921 293.973 347.605C294.749 347.289 295.366 346.871 295.812 346.347C296.258 345.822 296.681 345.084 297.071 344.122L297.656 342.641L288.497 320.781C288.464 320.721 288.45 320.632 288.45 320.512V320.507Z" fill="#840019"/>
<path d="M313.24 331.53C313.24 329.292 313.719 327.258 314.671 325.438C315.623 323.618 316.961 322.183 318.679 321.139C320.393 320.094 322.326 319.569 324.476 319.569C326.627 319.569 328.647 320.084 330.343 321.115C332.038 322.146 333.353 323.567 334.3 325.373C335.243 327.179 335.717 329.232 335.717 331.535C335.717 333.838 335.239 335.876 334.277 337.72C333.32 339.563 331.982 341.002 330.278 342.038C328.573 343.073 326.636 343.589 324.481 343.589C322.326 343.589 320.319 343.078 318.614 342.061C316.914 341.039 315.591 339.619 314.652 337.789C313.714 335.96 313.24 333.875 313.24 331.539V331.53ZM318.359 331.53C318.359 333.002 318.614 334.297 319.125 335.426C319.636 336.549 320.356 337.422 321.285 338.035C322.214 338.653 323.278 338.959 324.481 338.959C326.311 338.959 327.788 338.291 328.912 336.953C330.036 335.616 330.598 333.824 330.598 331.572C330.598 330.1 330.343 328.809 329.832 327.699C329.321 326.59 328.601 325.726 327.672 325.108C326.743 324.491 325.679 324.184 324.476 324.184C322.674 324.184 321.206 324.853 320.068 326.19C318.93 327.528 318.359 329.306 318.359 331.525V331.53Z" fill="#840019"/>
<path d="M341.082 334.516V320.688C341.082 320.539 341.133 320.409 341.24 320.307C341.347 320.205 341.472 320.149 341.621 320.149H345.573C345.722 320.149 345.852 320.2 345.954 320.307C346.061 320.409 346.112 320.539 346.112 320.688V333.944C346.112 335.588 346.47 336.828 347.19 337.664C347.91 338.499 348.969 338.917 350.376 338.917C351.514 338.917 352.583 338.611 353.586 337.998C354.589 337.385 355.495 336.545 356.303 335.467V320.688C356.303 320.539 356.354 320.414 356.461 320.307C356.568 320.2 356.693 320.149 356.842 320.149H360.795C360.943 320.149 361.074 320.2 361.176 320.307C361.283 320.414 361.334 320.539 361.334 320.688V342.507C361.334 342.655 361.283 342.785 361.176 342.887C361.069 342.99 360.943 343.045 360.795 343.045H357.111C356.963 343.045 356.833 342.994 356.731 342.887C356.624 342.781 356.573 342.655 356.573 342.502V339.735C355.704 340.914 354.677 341.843 353.498 342.521C352.313 343.198 350.975 343.542 349.48 343.542C346.846 343.542 344.788 342.748 343.307 341.165C341.825 339.577 341.082 337.362 341.082 334.52V334.516Z" fill="#840019"/>
<path d="M368.069 342.507V320.688C368.069 320.539 368.12 320.409 368.227 320.307C368.334 320.205 368.459 320.149 368.608 320.149H372.379C372.528 320.149 372.658 320.2 372.76 320.307C372.867 320.414 372.918 320.539 372.918 320.688V324.008C373.996 322.87 375.111 321.942 376.262 321.227C377.414 320.512 378.664 319.968 380.011 319.611L380.192 319.564C380.401 319.564 380.55 319.713 380.643 320.015L381.497 324.101L381.544 324.282C381.544 324.523 381.395 324.672 381.093 324.732C379.537 324.974 378.116 325.359 376.829 325.898C375.543 326.436 374.298 327.184 373.104 328.14V342.507C373.104 342.655 373.053 342.785 372.946 342.887C372.839 342.989 372.714 343.045 372.565 343.045H368.612C368.464 343.045 368.334 342.994 368.231 342.887C368.129 342.781 368.073 342.655 368.073 342.507H368.069Z" fill="#840019"/>
<path d="M395.464 324.226V320.693C395.464 320.539 395.515 320.414 395.622 320.307C395.729 320.2 395.855 320.149 396.003 320.149H400.132V318.39C400.132 315.683 400.978 313.565 402.664 312.033C404.35 310.501 406.896 309.735 410.3 309.735H411.466C411.615 309.735 411.74 309.786 411.847 309.893C411.954 309.999 412.005 310.125 412.005 310.278V313.811C412.005 313.965 411.954 314.09 411.847 314.197C411.745 314.304 411.615 314.355 411.466 314.355H410.528C408.503 314.355 407.1 314.708 406.324 315.409C405.548 316.11 405.163 317.243 405.163 318.798V320.145H411.225C411.373 320.145 411.503 320.196 411.605 320.303C411.712 320.409 411.763 320.535 411.763 320.688V324.222C411.763 324.375 411.712 324.5 411.605 324.607C411.499 324.714 411.373 324.765 411.225 324.765H405.163V342.497C405.163 342.646 405.112 342.771 405.005 342.878C404.898 342.985 404.773 343.036 404.624 343.036H400.671C400.523 343.036 400.393 342.985 400.29 342.878C400.184 342.776 400.132 342.646 400.132 342.497V324.765H396.003C395.855 324.765 395.724 324.714 395.622 324.607C395.515 324.5 395.464 324.375 395.464 324.222V324.226ZM414.862 312.456C414.862 311.518 415.168 310.765 415.791 310.19C416.408 309.619 417.198 309.331 418.164 309.331C419.13 309.331 419.897 309.619 420.505 310.19C421.114 310.765 421.42 311.518 421.42 312.456C421.42 313.394 421.123 314.164 420.528 314.726C419.934 315.288 419.144 315.571 418.164 315.571C417.184 315.571 416.408 315.283 415.791 314.703C415.173 314.122 414.862 313.375 414.862 312.456ZM415.67 342.507V320.688C415.67 320.539 415.721 320.409 415.823 320.307C415.925 320.205 416.055 320.149 416.199 320.149H420.161C420.31 320.149 420.435 320.2 420.538 320.307C420.64 320.414 420.696 320.539 420.696 320.688V342.507C420.696 342.655 420.644 342.785 420.538 342.887C420.431 342.99 420.305 343.045 420.161 343.045H416.199C416.051 343.045 415.925 342.994 415.823 342.887C415.721 342.781 415.67 342.655 415.67 342.507Z" fill="#840019"/>
<path d="M427.482 342.507V320.688C427.482 320.539 427.533 320.409 427.64 320.307C427.747 320.205 427.872 320.149 428.021 320.149H431.792C431.941 320.149 432.071 320.201 432.173 320.307C432.28 320.414 432.331 320.539 432.331 320.688V323.381C433.497 322.123 434.719 321.18 435.991 320.553C437.264 319.927 438.634 319.611 440.102 319.611C442.615 319.611 444.575 320.419 445.987 322.035C447.395 323.65 448.096 325.851 448.096 328.633V342.502C448.096 342.651 448.045 342.781 447.938 342.883C447.831 342.985 447.706 343.041 447.557 343.041H443.604C443.456 343.041 443.326 342.99 443.224 342.883C443.121 342.776 443.066 342.651 443.066 342.502V329.037C443.066 327.542 442.727 326.367 442.053 325.512C441.38 324.658 440.386 324.236 439.066 324.236C436.79 324.236 434.607 325.461 432.508 327.918V342.507C432.508 342.655 432.457 342.785 432.35 342.887C432.243 342.99 432.118 343.045 431.969 343.045H428.016C427.867 343.045 427.737 342.994 427.635 342.887C427.533 342.781 427.477 342.655 427.477 342.507H427.482Z" fill="#840019"/>
<path d="M453.215 336.768C453.215 334.896 453.898 333.401 455.259 332.291C456.62 331.177 458.468 330.518 460.805 330.309L467.405 329.626V328.684C467.405 327.277 467.015 326.162 466.239 325.341C465.459 324.519 464.339 324.105 462.872 324.105C460.656 324.105 459.012 325.076 457.934 327.017C457.874 327.165 457.776 327.263 457.641 327.309C457.507 327.356 457.363 327.346 457.214 327.286L454.069 326.032C453.74 325.884 453.651 325.642 453.8 325.317C454.608 323.585 455.797 322.192 457.372 321.148C458.947 320.103 460.851 319.578 463.099 319.578C464.962 319.578 466.601 319.959 468.018 320.72C469.435 321.482 470.522 322.536 471.288 323.883C472.055 325.229 472.44 326.752 472.44 328.456V333.336C472.44 334.831 472.589 336.164 472.881 337.334C473.174 338.499 473.704 339.772 474.465 341.151C474.554 341.271 474.595 341.378 474.595 341.466C474.595 341.587 474.475 341.722 474.238 341.875L470.893 343.417C470.773 343.477 470.684 343.51 470.624 343.51C470.471 343.51 470.322 343.417 470.173 343.236C469.388 341.935 468.812 340.738 468.45 339.651C467.702 340.803 466.68 341.745 465.394 342.488C464.107 343.226 462.593 343.598 460.851 343.598C459.383 343.598 458.073 343.31 456.921 342.739C455.77 342.168 454.864 341.36 454.204 340.324C453.545 339.284 453.215 338.105 453.215 336.781V336.768ZM458.106 336.549C458.106 337.473 458.426 338.165 459.072 338.625C459.718 339.085 460.563 339.317 461.608 339.317C462.867 339.317 464.005 339.01 465.022 338.402C466.039 337.789 466.834 336.963 467.4 335.922V333.109L461.427 333.87C460.261 333.991 459.416 334.265 458.891 334.697C458.366 335.128 458.106 335.746 458.106 336.549Z" fill="#840019"/>
<path d="M478.943 342.507V320.688C478.943 320.539 478.994 320.409 479.101 320.307C479.208 320.205 479.333 320.149 479.482 320.149H483.253C483.402 320.149 483.532 320.201 483.634 320.307C483.741 320.414 483.792 320.539 483.792 320.688V323.381C484.958 322.123 486.18 321.18 487.452 320.553C488.725 319.927 490.095 319.611 491.563 319.611C494.076 319.611 496.036 320.419 497.448 322.035C498.856 323.65 499.557 325.851 499.557 328.633V342.502C499.557 342.651 499.506 342.781 499.399 342.883C499.292 342.99 499.167 343.041 499.018 343.041H495.065C494.917 343.041 494.787 342.99 494.685 342.883C494.582 342.776 494.527 342.651 494.527 342.502V329.037C494.527 327.542 494.188 326.367 493.514 325.512C492.84 324.658 491.846 324.236 490.527 324.236C488.251 324.236 486.068 325.461 483.969 327.918V342.507C483.969 342.655 483.918 342.785 483.811 342.887C483.704 342.99 483.579 343.045 483.43 343.045H479.477C479.328 343.045 479.198 342.994 479.096 342.887C478.994 342.781 478.938 342.655 478.938 342.507H478.943Z" fill="#840019"/>
<path d="M504.857 331.53C504.857 329.259 505.331 327.216 506.283 325.392C507.235 323.567 508.564 322.141 510.278 321.111C511.992 320.08 513.928 319.564 516.084 319.564C518.239 319.564 520.176 320.075 521.63 321.092C523.084 322.109 524.198 323.488 524.974 325.22C525.034 325.341 525.062 325.429 525.062 325.489C525.062 325.698 524.942 325.847 524.705 325.939L521.425 327.332C521.365 327.365 521.277 327.379 521.156 327.379C520.947 327.379 520.798 327.272 520.705 327.059C519.628 325.146 518.086 324.189 516.079 324.189C514.881 324.189 513.817 324.505 512.893 325.136C511.964 325.768 511.244 326.636 510.737 327.746C510.226 328.855 509.976 330.118 509.976 331.53C509.976 332.942 510.231 334.297 510.737 335.426C511.244 336.549 511.964 337.422 512.893 338.035C513.822 338.653 514.867 338.959 516.037 338.959C518.225 338.959 519.897 337.97 521.068 335.987C521.249 335.686 521.5 335.611 521.829 335.76L524.974 337.153C525.123 337.213 525.23 337.297 525.29 337.399C525.35 337.506 525.35 337.617 525.29 337.738C524.51 339.507 523.344 340.923 521.788 341.987C520.232 343.05 518.313 343.584 516.037 343.584C513.761 343.584 511.871 343.068 510.189 342.033C508.508 340.998 507.193 339.567 506.26 337.738C505.326 335.909 504.857 333.842 504.857 331.53Z" fill="#840019"/>
<path d="M528.792 331.507C528.792 329.292 529.261 327.281 530.209 325.471C531.152 323.66 532.462 322.23 534.139 321.185C535.815 320.14 537.729 319.615 539.889 319.615C541.896 319.615 543.67 320.08 545.212 321.008C546.754 321.937 547.953 323.233 548.803 324.89C549.657 326.552 550.08 328.428 550.08 330.522C550.08 330.88 550.047 331.479 549.992 332.319C549.931 332.649 549.736 332.812 549.406 332.812H533.823C534.032 334.817 534.733 336.373 535.931 337.478C537.13 338.588 538.612 339.14 540.377 339.14C542.62 339.14 544.343 338.244 545.542 336.447C545.723 336.118 545.96 336.043 546.262 336.224L549.313 337.752C549.643 337.933 549.745 338.128 549.629 338.337C548.789 339.953 547.576 341.234 545.992 342.177C544.404 343.12 542.504 343.589 540.288 343.589C538.073 343.589 536.089 343.087 534.338 342.084C532.587 341.081 531.226 339.66 530.251 337.817C529.28 335.978 528.792 333.875 528.792 331.511V331.507ZM533.957 328.948H545.184C545.003 327.333 544.427 326.084 543.456 325.201C542.485 324.319 541.278 323.878 539.842 323.878C538.407 323.878 537.116 324.333 536.071 325.248C535.021 326.162 534.32 327.393 533.962 328.953L533.957 328.948Z" fill="#840019"/>
<path d="M375.696 102.14C348.147 124.957 312.762 136.101 277.103 133.185C252.67 131.643 232.275 120.685 216.7 106.004C211.084 100.71 193.773 136.291 184.046 136.277C170.576 136.254 157.18 113.252 155.16 100.306H157.129C162.935 110.433 171.473 118.257 181.199 123.95C184.009 125.593 193.058 106.403 204.442 92.891C214.656 80.7675 223.403 91.4377 225.224 92.5938C235.912 99.3822 248.341 104.142 261.816 105.59C294.331 109.532 333.297 94.7529 354.492 74.5455L330.83 56.3115H402.311L386.518 132.205L376.165 102.637L375.691 102.145L375.696 102.14Z" fill="white"/>
<path d="M246.298 56.502C269.118 56.502 284.957 35.8349 284.957 18.9288C284.957 6.31314 273.41 0.945557 262.137 0.945557C237.161 0.945557 223.477 23.2331 223.477 38.5187C223.477 51.1344 235.289 56.502 246.298 56.502Z" fill="white"/>
<path d="M307.518 56.502C330.338 56.502 346.177 35.8349 346.177 18.9288C346.177 6.31314 334.365 0.945557 323.087 0.945557C298.121 0.945557 284.428 23.2192 284.428 38.5187C284.428 51.1344 296.509 56.502 307.518 56.502Z" fill="white"/>
</svg>
