<svg width="558" height="150" viewBox="0 0 558 150" fill="var(--icon-bg, transparent)" xmlns="http://www.w3.org/2000/svg">
<path d="M0.235352 75.2628V9.18016C0.235352 8.2933 0.681264 7.84753 1.56844 7.84753H12.7116C13.5988 7.84753 14.0447 8.2933 14.0447 9.18016V75.2628C14.0447 76.1543 13.5988 76.5954 12.7116 76.5954H1.56844C0.681264 76.5954 0.235352 76.1496 0.235352 75.2628Z" fill="#EB0033"/>
<path d="M21.8623 52.1255C21.8623 47.2362 22.9028 42.839 24.9791 38.9387C27.06 35.0337 29.9631 31.9878 33.6929 29.7962C37.4228 27.6045 41.6729 26.5087 46.4339 26.5087C51.4504 26.5087 55.5798 27.651 58.8173 29.9354C62.0548 32.2199 64.5305 35.2984 66.2492 39.1709C66.3142 39.2962 66.3467 39.4866 66.3467 39.742C66.3467 40.1877 66.0587 40.5685 65.4874 40.8842L56.9129 44.4084C56.532 44.5338 56.309 44.5988 56.244 44.5988C55.8631 44.5988 55.5147 44.3109 55.1942 43.7398C53.2248 40.1831 50.3031 38.4094 46.4293 38.4094C43.0617 38.4094 40.3352 39.6816 38.2357 42.2168C36.1408 44.7567 35.091 48.0255 35.091 52.0234C35.091 56.0212 36.1408 59.5779 38.2357 62.1178C40.3305 64.6576 43.0617 65.9252 46.4293 65.9252C50.619 65.9252 53.7961 64.0865 55.956 60.4044C56.3369 59.6429 56.9082 59.42 57.67 59.7358L66.147 63.26C66.5929 63.4504 66.8762 63.6593 67.0063 63.8775C67.1317 64.1004 67.1317 64.3697 67.0063 64.6855C65.2273 68.6229 62.6261 71.7943 59.1935 74.2088C55.7609 76.6233 51.5108 77.8259 46.4293 77.8259C41.3477 77.8259 37.3252 76.73 33.5907 74.5384C29.8609 72.3468 26.9671 69.3009 24.9233 65.3959C22.8749 61.4909 21.853 57.0659 21.853 52.1116L21.8623 52.1255Z" fill="#EB0033"/>
<path d="M69.3059 63.3482C69.3059 59.2622 70.7969 55.9748 73.7836 53.486C76.7703 50.9972 80.8021 49.5299 85.8836 49.0795L99.1216 47.8352V46.405C99.1216 43.7398 98.3738 41.6457 96.8828 40.1181C95.3918 38.5951 93.2133 37.8336 90.3567 37.8336C86.2274 37.8336 83.0549 39.5841 80.83 43.0898C80.4491 43.8559 79.8777 44.0788 79.116 43.7584L71.1128 40.7078C70.7319 40.5824 70.4764 40.3595 70.351 40.0391C70.2256 39.7234 70.2535 39.3705 70.4486 38.9898C72.1625 35.1777 74.7683 32.141 78.2613 29.8844C81.7543 27.6278 86.0416 26.4995 91.1231 26.4995C95.3128 26.4995 98.9637 27.3259 102.076 28.9789C105.188 30.6319 107.585 32.935 109.266 35.8927C110.948 38.8505 111.788 42.2029 111.788 45.95V55.2179C111.788 58.4543 112.123 61.3284 112.787 63.8358C113.451 66.3431 114.58 68.9944 116.168 71.785C116.359 72.0357 116.456 72.319 116.456 72.6347C116.456 72.9504 116.201 73.2662 115.695 73.5773L106.93 77.6355C106.804 77.6958 106.614 77.7283 106.358 77.7283C105.787 77.7283 105.374 77.5101 105.118 77.069C103.595 74.7427 102.42 72.319 101.593 69.8023C100.004 72.1286 97.8954 74.0509 95.2571 75.56C92.6234 77.069 89.4927 77.8259 85.8743 77.8259C82.6972 77.8259 79.8406 77.2083 77.2998 75.9778C74.759 74.7474 72.7896 73.0247 71.3961 70.8192C69.998 68.609 69.3013 66.1156 69.3013 63.3389L69.3059 63.3482ZM81.7822 62.4381C81.7822 64.1097 82.386 65.3634 83.5937 66.1992C84.8014 67.035 86.3574 67.4529 88.2618 67.4529C90.6725 67.4529 92.8185 66.9096 94.6904 65.8138C96.5623 64.7226 98.0394 63.2461 99.1216 61.3841V55.9887L87.4954 57.4188C85.526 57.6742 84.086 58.2081 83.1663 59.0114C82.2467 59.8147 81.7868 60.957 81.7868 62.4381H81.7822Z" fill="#EB0033"/>
<path d="M121.223 75.2627V29.081C121.223 28.1942 121.669 27.7484 122.556 27.7484H132.366C133.253 27.7484 133.699 28.1942 133.699 29.081V35.5584C135.919 33.2739 138.191 31.3841 140.508 29.8936C142.826 28.4031 145.348 27.2748 148.08 26.5133L148.46 26.4158C149.097 26.4158 149.51 26.7966 149.701 27.5581L151.703 38.2236L151.8 38.7018C151.8 39.273 151.419 39.6212 150.657 39.7512C147.29 40.197 144.275 40.926 141.609 41.9428C138.943 42.9597 136.467 44.3573 134.177 46.131V75.2674C134.177 76.1589 133.731 76.6 132.844 76.6H122.556C121.664 76.6 121.223 76.1542 121.223 75.2674V75.2627Z" fill="#EB0033"/>
<path d="M152.567 52.0326C152.567 47.2083 153.565 42.8622 155.567 38.9851C157.569 35.1127 160.393 32.0667 164.044 29.8426C167.695 27.6231 171.871 26.5087 176.572 26.5087C181.017 26.5087 184.905 27.5256 188.24 29.5547C191.575 31.5884 194.162 34.379 196.001 37.9358C197.841 41.4925 198.765 45.5553 198.765 50.1243C198.765 50.9508 198.7 52.2509 198.575 54.0292C198.51 54.8557 198.036 55.269 197.144 55.269H165.614C166.06 58.8861 167.393 61.7138 169.613 63.7429C171.834 65.7766 174.597 66.7889 177.9 66.7889C182.09 66.7889 185.332 65.108 187.617 61.7417C188.123 61.0452 188.727 60.8827 189.429 61.2634L197.241 64.978C198.068 65.4237 198.352 65.8974 198.101 66.4081C196.322 69.8998 193.688 72.6765 190.195 74.7381C186.702 76.7997 182.447 77.8351 177.431 77.8351C172.414 77.8351 168.318 76.7533 164.569 74.5988C160.821 72.4397 157.885 69.4077 155.758 65.5073C153.63 61.6024 152.567 57.1123 152.567 52.0326ZM165.809 46.2239H186.289C185.973 43.243 184.923 40.9399 183.144 39.3194C181.365 37.6989 179.145 36.891 176.474 36.891C173.803 36.891 171.536 37.7314 169.665 39.4123C167.793 41.0932 166.506 43.3637 165.805 46.2193L165.809 46.2239Z" fill="#EB0033"/>
<path d="M227.546 75.2628V9.18016C227.546 8.2933 227.992 7.84753 228.879 7.84753H272.982C273.869 7.84753 274.315 8.29329 274.315 9.18944V19.4556C274.315 20.3518 273.869 20.7975 272.978 20.7975H240.974V38.3165H268.69C269.582 38.3165 270.028 38.7622 270.028 39.6584V49.9246C270.028 50.8208 269.582 51.2665 268.69 51.2665H240.974V75.2674C240.974 76.1543 240.533 76.5954 239.65 76.5954H228.869C227.987 76.5954 227.546 76.1496 227.546 75.2628Z" fill="#EB0033"/>
<path d="M279.75 11.7525C279.75 9.53302 280.503 7.73609 282.003 6.37098C283.503 5.00586 285.468 4.3233 287.897 4.3233C290.327 4.3233 292.222 5.00586 293.671 6.37098C295.125 7.73609 295.85 9.56089 295.85 11.8454C295.85 14.1298 295.125 15.9732 293.671 17.3662C292.217 18.7638 290.294 19.4603 287.897 19.4603C285.501 19.4603 283.503 18.7638 282.003 17.3662C280.503 15.9686 279.75 14.0973 279.75 11.7479V11.7525ZM281.464 75.2628V29.0811C281.464 28.1942 281.905 27.7485 282.788 27.7485H293.095C293.978 27.7485 294.419 28.1942 294.419 29.0811V75.2628C294.419 76.1543 293.978 76.5954 293.095 76.5954H282.788C281.905 76.5954 281.464 76.1496 281.464 75.2628Z" fill="#EB0033"/>
<path d="M303.853 75.2628V29.0811C303.853 28.1942 304.299 27.7485 305.186 27.7485H314.996C315.883 27.7485 316.329 28.1942 316.329 29.0811V34.2212C318.805 31.5559 321.36 29.6011 323.998 28.366C326.632 27.1263 329.474 26.5087 332.521 26.5087C338.044 26.5087 342.318 28.2685 345.332 31.7927C348.347 35.317 349.856 40.1227 349.856 46.2193V75.2628C349.856 76.1543 349.41 76.5954 348.523 76.5954H338.235C337.343 76.5954 336.902 76.1496 336.902 75.2628V47.3615C336.902 44.5709 336.265 42.3793 334.997 40.7913C333.725 39.2034 331.853 38.4094 329.377 38.4094C327.282 38.4094 325.169 38.9805 323.041 40.1227C320.914 41.265 318.833 42.9783 316.803 45.2628V75.2581C316.803 76.1496 316.357 76.5908 315.47 76.5908H305.181C304.29 76.5908 303.848 76.145 303.848 75.2581L303.853 75.2628Z" fill="#EB0033"/>
<path d="M356.155 63.3482C356.155 59.2622 357.646 55.9748 360.633 53.486C363.619 50.9972 367.651 49.5299 372.733 49.0795L385.971 47.8352V46.405C385.971 43.7398 385.223 41.6457 383.732 40.1181C382.241 38.5951 380.062 37.8336 377.206 37.8336C373.076 37.8336 369.904 39.5841 367.679 43.0898C367.298 43.8559 366.727 44.0788 365.965 43.7584L357.962 40.7078C357.581 40.5824 357.326 40.3595 357.2 40.0391C357.075 39.7234 357.103 39.3705 357.298 38.9898C359.012 35.1777 361.617 32.141 365.11 29.8844C368.603 27.6278 372.891 26.4995 377.972 26.4995C382.162 26.4995 385.813 27.3259 388.925 28.9789C392.037 30.6319 394.434 32.935 396.115 35.8927C397.797 38.8505 398.637 42.2029 398.637 45.95V55.2179C398.637 58.4543 398.972 61.3284 399.636 63.8358C400.3 66.3431 401.429 68.9944 403.018 71.785C403.208 72.0357 403.306 72.319 403.306 72.6347C403.306 72.9504 403.05 73.2662 402.544 73.5773L393.779 77.6355C393.653 77.6958 393.463 77.7283 393.208 77.7283C392.636 77.7283 392.223 77.5101 391.967 77.069C390.444 74.7427 389.269 72.319 388.442 69.8023C386.853 72.1286 384.745 74.0509 382.106 75.56C379.473 77.069 376.342 77.8259 372.723 77.8259C369.546 77.8259 366.69 77.2083 364.149 75.9778C361.608 74.7474 359.639 73.0247 358.245 70.8192C356.847 68.609 356.15 66.1156 356.15 63.3389L356.155 63.3482ZM368.631 62.4381C368.631 64.1097 369.235 65.3634 370.443 66.1992C371.65 67.035 373.207 67.4529 375.111 67.4529C377.522 67.4529 379.668 66.9096 381.54 65.8138C383.411 64.7226 384.889 63.2461 385.971 61.3841V55.9887L374.345 57.4188C372.375 57.6742 370.935 58.2081 370.015 59.0114C369.096 59.8147 368.636 60.957 368.636 62.4381H368.631Z" fill="#EB0033"/>
<path d="M408.072 75.2628V29.0811C408.072 28.1942 408.518 27.7485 409.405 27.7485H419.215C420.102 27.7485 420.548 28.1942 420.548 29.0811V34.2212C423.024 31.5559 425.578 29.6011 428.217 28.366C430.85 27.1263 433.693 26.5087 436.74 26.5087C442.263 26.5087 446.536 28.2685 449.551 31.7927C452.565 35.317 454.075 40.1227 454.075 46.2193V75.2628C454.075 76.1543 453.629 76.5954 452.742 76.5954H442.453C441.562 76.5954 441.12 76.1496 441.12 75.2628V47.3615C441.12 44.5709 440.484 42.3793 439.216 40.7913C437.943 39.2034 436.071 38.4094 433.596 38.4094C431.501 38.4094 429.387 38.9805 427.26 40.1227C425.133 41.265 423.052 42.9783 421.022 45.2628V75.2581C421.022 76.1496 420.576 76.5908 419.689 76.5908H409.4C408.508 76.5908 408.067 76.145 408.067 75.2581L408.072 75.2628Z" fill="#EB0033"/>
<path d="M460.755 52.1255C460.755 47.2362 461.795 42.839 463.872 38.9387C465.948 35.0337 468.856 31.9878 472.585 29.7962C476.315 27.6045 480.565 26.5087 485.327 26.5087C490.343 26.5087 494.472 27.651 497.71 29.9354C500.947 32.2199 503.423 35.2984 505.142 39.1709C505.207 39.2962 505.239 39.4866 505.239 39.742C505.239 40.1877 504.951 40.5685 504.38 40.8842L495.805 44.4084C495.425 44.5338 495.202 44.5988 495.137 44.5988C494.756 44.5988 494.407 44.3109 494.087 43.7398C492.117 40.1831 489.196 38.4094 485.322 38.4094C481.954 38.4094 479.228 39.6816 477.128 42.2168C475.033 44.7567 473.984 48.0255 473.984 52.0234C473.984 56.0212 475.033 59.5779 477.128 62.1178C479.223 64.6576 481.954 65.9252 485.322 65.9252C489.512 65.9252 492.689 64.0865 494.849 60.4044C495.229 59.6429 495.801 59.42 496.563 59.7358L505.04 63.26C505.485 63.4504 505.769 63.6593 505.899 63.8775C506.024 64.1004 506.024 64.3697 505.899 64.6855C504.12 68.6229 501.519 71.7943 498.086 74.2088C494.654 76.6233 490.403 77.8259 485.322 77.8259C480.24 77.8259 476.218 76.73 472.483 74.5384C468.749 72.3468 465.86 69.3009 463.816 65.3959C461.768 61.4909 460.746 57.0659 460.746 52.1116L460.755 52.1255Z" fill="#EB0033"/>
<path d="M508.579 52.0326C508.579 47.2083 509.578 42.8622 511.58 38.9851C513.582 35.1127 516.406 32.0667 520.057 29.8426C523.708 27.6231 527.884 26.5087 532.584 26.5087C537.029 26.5087 540.917 27.5256 544.252 29.5547C547.587 31.5884 550.175 34.379 552.014 37.9358C553.853 41.4925 554.778 45.5553 554.778 50.1243C554.778 50.9508 554.713 52.2509 554.587 54.0292C554.522 54.8557 554.048 55.269 553.157 55.269H521.627C522.073 58.8861 523.406 61.7138 525.626 63.7429C527.846 65.7766 530.61 66.7889 533.913 66.7889C538.102 66.7889 541.345 65.108 543.63 61.7417C544.136 61.0452 544.74 60.8827 545.441 61.2634L553.254 64.978C554.081 65.4237 554.364 65.8974 554.113 66.4081C552.334 69.8998 549.701 72.6765 546.208 74.7381C542.715 76.7997 538.46 77.8351 533.444 77.8351C528.427 77.8351 524.33 76.7533 520.582 74.5988C516.833 72.4397 513.898 69.4077 511.77 65.5073C509.643 61.6024 508.579 57.1123 508.579 52.0326ZM521.817 46.2239H542.297C541.981 43.243 540.931 40.9399 539.152 39.3194C537.373 37.6989 535.153 36.891 532.482 36.891C529.811 36.891 527.545 37.7314 525.673 39.4123C523.801 41.0932 522.514 43.3637 521.813 46.2193L521.817 46.2239Z" fill="#EB0033"/>
<path d="M2.12122 139.507V108.174C2.12122 108.026 2.17231 107.896 2.27914 107.793C2.38598 107.691 2.51139 107.635 2.66003 107.635H6.92406C7.0727 107.635 7.20276 107.687 7.30494 107.793C7.41178 107.9 7.46287 108.026 7.46287 108.174V139.507C7.46287 139.655 7.41178 139.785 7.30494 139.887C7.19811 139.99 7.0727 140.045 6.92406 140.045H2.66003C2.51139 140.045 2.38133 139.994 2.27914 139.887C2.17695 139.781 2.12122 139.655 2.12122 139.507Z" fill="#840019"/>
<path d="M23.9479 121.226V117.693C23.9479 117.54 23.999 117.414 24.1058 117.307C24.2126 117.201 24.3381 117.15 24.4867 117.15H28.6625V111.132C28.6625 110.983 28.7136 110.858 28.8204 110.751C28.9272 110.649 29.0526 110.593 29.2013 110.593H33.1541C33.3027 110.593 33.4328 110.644 33.535 110.751C33.6418 110.853 33.6929 110.983 33.6929 111.132V117.15H40.4745C40.6231 117.15 40.7532 117.201 40.8554 117.307C40.9622 117.414 41.0133 117.54 41.0133 117.693V121.226C41.0133 121.379 40.9622 121.505 40.8554 121.612C40.7485 121.718 40.6231 121.77 40.4745 121.77H33.6929V130.36C33.6929 131.553 33.8555 132.509 34.1853 133.224C34.5151 133.939 35.091 134.478 35.9132 134.836C36.7353 135.193 37.8826 135.374 39.3504 135.374H40.651C40.7996 135.374 40.9297 135.425 41.0319 135.532C41.1387 135.639 41.1898 135.764 41.1898 135.913V139.549C41.1898 139.697 41.1387 139.827 41.0319 139.929C40.9251 140.036 40.7996 140.087 40.651 140.087H38.8534C35.379 140.087 32.815 139.302 31.1521 137.738C29.4893 136.168 28.6578 133.939 28.6578 131.042V121.774H24.482C24.3334 121.774 24.2034 121.723 24.1012 121.616C23.9943 121.51 23.9432 121.384 23.9432 121.231L23.9479 121.226Z" fill="#840019"/>
<path d="M44.5575 133.768C44.5575 131.896 45.2403 130.401 46.6013 129.292C47.9622 128.177 49.8109 127.518 52.1473 127.309L58.7477 126.626V125.684C58.7477 124.277 58.3575 123.163 57.5818 122.341C56.8015 121.519 55.6821 121.106 54.2143 121.106C51.9987 121.106 50.3544 122.076 49.2767 124.017C49.2163 124.165 49.1188 124.263 48.9841 124.309C48.8494 124.356 48.7054 124.347 48.5568 124.286L45.4122 123.032C45.0824 122.884 44.9941 122.642 45.1428 122.317C45.951 120.586 47.1401 119.193 48.7147 118.148C50.2893 117.103 52.1937 116.578 54.4419 116.578C56.3045 116.578 57.9441 116.959 59.3608 117.721C60.7775 118.482 61.8645 119.536 62.6309 120.883C63.3973 122.229 63.7828 123.752 63.7828 125.456V130.336C63.7828 131.831 63.9314 133.164 64.2241 134.334C64.5167 135.5 65.0462 136.772 65.808 138.151C65.8962 138.272 65.9381 138.378 65.9381 138.467C65.9381 138.587 65.8173 138.722 65.5804 138.875L62.2361 140.417C62.1153 140.477 62.027 140.51 61.9666 140.51C61.8134 140.51 61.6647 140.417 61.5161 140.236C60.7311 138.936 60.1551 137.738 59.7928 136.651C59.045 137.803 58.0231 138.745 56.7365 139.488C55.4498 140.226 53.9356 140.598 52.1937 140.598C50.7259 140.598 49.4161 140.31 48.2641 139.739C47.1122 139.168 46.2064 138.36 45.5469 137.324C44.8873 136.284 44.5575 135.105 44.5575 133.782V133.768ZM49.4532 133.549C49.4532 134.473 49.7737 135.165 50.4194 135.625C51.065 136.085 51.9104 136.317 52.9555 136.317C54.2143 136.317 55.3523 136.01 56.3695 135.402C57.3868 134.789 58.181 133.963 58.7477 132.923V130.109L52.7744 130.87C51.6085 130.991 50.7631 131.265 50.2382 131.697C49.7134 132.129 49.4532 132.746 49.4532 133.549Z" fill="#840019"/>
<path d="M70.2905 139.507V107.32C70.2905 107.171 70.3416 107.041 70.4485 106.939C70.5553 106.837 70.6807 106.781 70.8293 106.781H74.7822C74.9308 106.781 75.0609 106.832 75.163 106.939C75.2652 107.046 75.321 107.171 75.321 107.32V126.849L85.1543 117.423C85.3354 117.242 85.5584 117.154 85.8278 117.154H90.9C91.2298 117.154 91.3924 117.261 91.3924 117.47C91.3924 117.558 91.3181 117.679 91.1694 117.827L82.1862 126.176L91.5735 139.372C91.6618 139.493 91.7082 139.595 91.7082 139.688C91.7082 139.929 91.541 140.045 91.2159 140.045H86.2783C86.0089 140.045 85.7999 139.925 85.6513 139.688L78.3773 129.227L75.3256 132.101V139.507C75.3256 139.655 75.2745 139.785 75.1677 139.887C75.0609 139.99 74.9354 140.045 74.7868 140.045H70.834C70.6853 140.045 70.5553 139.994 70.4531 139.887C70.3509 139.781 70.2952 139.655 70.2952 139.507H70.2905Z" fill="#840019"/>
<path d="M93.2366 128.507C93.2366 126.292 93.7057 124.282 94.6486 122.471C95.5915 120.66 96.9014 119.23 98.5782 118.185C100.255 117.14 102.169 116.616 104.329 116.616C106.335 116.616 108.11 117.08 109.652 118.009C111.194 118.937 112.392 120.233 113.242 121.89C114.097 123.553 114.524 125.428 114.524 127.523C114.524 127.88 114.492 128.479 114.436 129.319C114.376 129.649 114.181 129.812 113.851 129.812H98.267C98.476 131.818 99.1774 133.373 100.376 134.478C101.574 135.588 103.056 136.14 104.821 136.14C107.064 136.14 108.788 135.244 109.986 133.447C110.167 133.118 110.404 133.043 110.706 133.224L113.758 134.752C114.088 134.933 114.19 135.128 114.074 135.337C113.233 136.953 112.021 138.234 110.437 139.177C108.848 140.12 106.948 140.589 104.733 140.589C102.517 140.589 100.534 140.087 98.7826 139.084C97.0315 138.081 95.6705 136.66 94.6951 134.817C93.7243 132.978 93.2366 130.875 93.2366 128.512V128.507ZM98.4017 125.948H109.628C109.447 124.333 108.871 123.084 107.901 122.201C106.93 121.319 105.722 120.878 104.287 120.878C102.852 120.878 101.56 121.333 100.515 122.248C99.4654 123.163 98.764 124.393 98.4064 125.953L98.4017 125.948Z" fill="#840019"/>
<path d="M130.419 128.53C130.419 126.26 130.893 124.217 131.845 122.392C132.798 120.567 134.126 119.141 135.84 118.111C137.554 117.08 139.491 116.564 141.646 116.564C143.801 116.564 145.738 117.075 147.192 118.092C148.646 119.109 149.761 120.488 150.537 122.22C150.597 122.341 150.625 122.429 150.625 122.489C150.625 122.698 150.504 122.847 150.267 122.94L146.988 124.333C146.927 124.365 146.839 124.379 146.718 124.379C146.509 124.379 146.361 124.272 146.268 124.059C145.19 122.146 143.648 121.189 141.642 121.189C140.443 121.189 139.379 121.505 138.455 122.136C137.526 122.768 136.806 123.636 136.3 124.746C135.789 125.856 135.538 127.119 135.538 128.53C135.538 129.942 135.794 131.297 136.3 132.426C136.806 133.549 137.526 134.422 138.455 135.035C139.384 135.653 140.429 135.959 141.6 135.959C143.783 135.959 145.46 134.97 146.63 132.988C146.811 132.686 147.062 132.612 147.392 132.76L150.537 134.153C150.685 134.213 150.792 134.297 150.852 134.399C150.913 134.506 150.913 134.617 150.852 134.738C150.072 136.507 148.906 137.923 147.35 138.987C145.794 140.05 143.876 140.584 141.6 140.584C139.324 140.584 137.433 140.069 135.752 139.033C134.07 137.998 132.756 136.568 131.822 134.738C130.889 132.909 130.419 130.842 130.419 128.53Z" fill="#840019"/>
<path d="M154.132 133.768C154.132 131.896 154.815 130.401 156.176 129.292C157.537 128.177 159.385 127.518 161.722 127.309L168.322 126.626V125.684C168.322 124.277 167.932 123.163 167.156 122.341C166.376 121.519 165.257 121.106 163.789 121.106C161.573 121.106 159.929 122.076 158.851 124.017C158.791 124.165 158.693 124.263 158.559 124.309C158.424 124.356 158.28 124.347 158.131 124.286L154.987 123.032C154.657 122.884 154.569 122.642 154.717 122.317C155.526 120.586 156.715 119.193 158.289 118.148C159.864 117.103 161.768 116.578 164.016 116.578C165.879 116.578 167.519 116.959 168.935 117.721C170.352 118.482 171.439 119.536 172.205 120.883C172.972 122.229 173.357 123.752 173.357 125.456V130.336C173.357 131.831 173.506 133.164 173.799 134.334C174.091 135.5 174.621 136.772 175.383 138.151C175.471 138.272 175.513 138.378 175.513 138.467C175.513 138.587 175.392 138.722 175.155 138.875L171.811 140.417C171.69 140.477 171.602 140.51 171.541 140.51C171.388 140.51 171.239 140.417 171.091 140.236C170.306 138.936 169.73 137.738 169.367 136.651C168.62 137.803 167.598 138.745 166.311 139.488C165.024 140.226 163.51 140.598 161.768 140.598C160.301 140.598 158.991 140.31 157.839 139.739C156.687 139.168 155.781 138.36 155.121 137.324C154.462 136.284 154.132 135.105 154.132 133.782V133.768ZM159.028 133.549C159.028 134.473 159.348 135.165 159.994 135.625C160.64 136.085 161.485 136.317 162.53 136.317C163.789 136.317 164.927 136.01 165.944 135.402C166.961 134.789 167.756 133.963 168.322 132.923V130.109L162.349 130.87C161.183 130.991 160.338 131.265 159.813 131.697C159.288 132.129 159.028 132.746 159.028 133.549Z" fill="#840019"/>
<path d="M179.865 139.507V117.688C179.865 117.54 179.916 117.41 180.023 117.307C180.13 117.205 180.255 117.15 180.404 117.15H184.176C184.324 117.15 184.454 117.201 184.557 117.307C184.663 117.414 184.715 117.54 184.715 117.688V121.008C185.792 119.87 186.907 118.942 188.059 118.227C189.211 117.512 190.46 116.968 191.807 116.611L191.988 116.564C192.197 116.564 192.346 116.713 192.439 117.015L193.294 121.101L193.34 121.282C193.34 121.523 193.192 121.672 192.89 121.732C191.334 121.974 189.912 122.359 188.626 122.898C187.339 123.436 186.094 124.184 184.9 125.141V139.507C184.9 139.655 184.849 139.785 184.742 139.887C184.636 139.99 184.51 140.045 184.362 140.045H180.409C180.26 140.045 180.13 139.994 180.028 139.887C179.926 139.781 179.87 139.655 179.87 139.507H179.865Z" fill="#840019"/>
<path d="M195.537 128.507C195.537 126.292 196.006 124.282 196.949 122.471C197.892 120.66 199.202 119.23 200.879 118.185C202.556 117.14 204.469 116.616 206.629 116.616C208.636 116.616 210.41 117.08 211.952 118.009C213.494 118.937 214.693 120.233 215.543 121.89C216.397 123.553 216.825 125.428 216.825 127.523C216.825 127.88 216.792 128.479 216.737 129.319C216.676 129.649 216.481 129.812 216.151 129.812H200.568C200.777 131.818 201.478 133.373 202.676 134.478C203.875 135.588 205.356 136.14 207.122 136.14C209.365 136.14 211.088 135.244 212.287 133.447C212.468 133.118 212.705 133.043 213.007 133.224L216.058 134.752C216.388 134.933 216.49 135.128 216.374 135.337C215.533 136.953 214.321 138.234 212.737 139.177C211.149 140.12 209.249 140.589 207.033 140.589C204.818 140.589 202.834 140.087 201.083 139.084C199.332 138.081 197.971 136.66 196.996 134.817C196.025 132.978 195.537 130.875 195.537 128.512V128.507ZM200.702 125.948H211.929C211.748 124.333 211.172 123.084 210.201 122.201C209.23 121.319 208.023 120.878 206.587 120.878C205.152 120.878 203.861 121.333 202.816 122.248C201.766 123.163 201.065 124.393 200.707 125.953L200.702 125.948Z" fill="#840019"/>
<path d="M232.72 128.53C232.72 126.292 233.199 124.258 234.151 122.438C235.103 120.618 236.441 119.183 238.159 118.139C239.873 117.094 241.806 116.569 243.956 116.569C246.107 116.569 248.127 117.084 249.823 118.115C251.518 119.146 252.833 120.567 253.78 122.373C254.723 124.179 255.197 126.232 255.197 128.535C255.197 130.838 254.719 132.876 253.757 134.72C252.8 136.563 251.462 138.002 249.758 139.038C248.053 140.073 246.116 140.589 243.961 140.589C241.806 140.589 239.799 140.078 238.094 139.061C236.394 138.039 235.071 136.619 234.132 134.789C233.194 132.96 232.72 130.875 232.72 128.539V128.53ZM237.839 128.53C237.839 130.002 238.094 131.297 238.605 132.426C239.116 133.549 239.836 134.422 240.765 135.035C241.694 135.653 242.758 135.959 243.961 135.959C245.791 135.959 247.268 135.291 248.392 133.953C249.516 132.616 250.078 130.824 250.078 128.572C250.078 127.1 249.823 125.809 249.312 124.699C248.801 123.59 248.081 122.726 247.152 122.108C246.223 121.491 245.159 121.184 243.956 121.184C242.154 121.184 240.686 121.853 239.548 123.19C238.41 124.528 237.839 126.306 237.839 128.525V128.53Z" fill="#840019"/>
<path d="M257.552 121.226V117.693C257.552 117.539 257.603 117.414 257.71 117.307C257.817 117.201 257.942 117.149 258.091 117.149H262.22V115.39C262.22 112.683 263.066 110.565 264.756 109.033C266.447 107.501 269.002 106.735 272.411 106.735H274.209C274.357 106.735 274.487 106.786 274.59 106.893C274.696 106.999 274.747 107.125 274.747 107.278V110.811C274.747 110.965 274.696 111.09 274.59 111.197C274.483 111.304 274.357 111.355 274.209 111.355H272.639C270.604 111.355 269.197 111.708 268.416 112.409C267.636 113.11 267.251 114.243 267.251 115.798V117.145H273.851C274 117.145 274.13 117.196 274.232 117.303C274.339 117.409 274.39 117.535 274.39 117.688V121.222C274.39 121.375 274.339 121.5 274.232 121.607C274.125 121.714 274 121.765 273.851 121.765H267.251V139.497C267.251 139.646 267.2 139.771 267.093 139.878C266.986 139.985 266.86 140.036 266.712 140.036H262.759C262.61 140.036 262.48 139.985 262.378 139.878C262.271 139.776 262.22 139.646 262.22 139.497V121.765H258.091C257.942 121.765 257.812 121.714 257.71 121.607C257.603 121.5 257.552 121.375 257.552 121.222V121.226Z" fill="#840019"/>
<path d="M288.45 117.507C288.45 117.27 288.599 117.149 288.901 117.149H293.392C293.722 117.149 293.931 117.284 294.019 117.553L300.309 134.028L306.282 117.6C306.37 117.303 306.565 117.149 306.867 117.149H310.908C311.117 117.149 311.261 117.201 311.336 117.307C311.41 117.414 311.419 117.567 311.359 117.781L301.702 142.293C301.131 143.788 300.429 145.037 299.593 146.04C298.753 147.043 297.661 147.86 296.314 148.487C294.967 149.114 293.244 149.578 291.149 149.88C290.819 149.94 290.503 149.968 290.206 149.968C289.909 149.968 289.728 149.787 289.667 149.429L289.217 146.063V145.975C289.217 145.733 289.379 145.585 289.709 145.524L290.652 145.39C292.087 145.181 293.197 144.921 293.973 144.605C294.749 144.289 295.366 143.871 295.812 143.347C296.258 142.822 296.681 142.084 297.071 141.123L297.656 139.641L288.497 117.781C288.464 117.721 288.45 117.632 288.45 117.512V117.507Z" fill="#840019"/>
<path d="M313.24 128.53C313.24 126.292 313.719 124.258 314.671 122.438C315.623 120.618 316.961 119.183 318.68 118.139C320.394 117.094 322.326 116.569 324.477 116.569C326.627 116.569 328.648 117.084 330.343 118.115C332.038 119.146 333.353 120.567 334.301 122.373C335.243 124.179 335.717 126.232 335.717 128.535C335.717 130.838 335.239 132.876 334.277 134.72C333.32 136.563 331.983 138.002 330.278 139.038C328.573 140.073 326.636 140.589 324.481 140.589C322.326 140.589 320.319 140.078 318.615 139.061C316.915 138.039 315.591 136.619 314.653 134.789C313.714 132.96 313.24 130.875 313.24 128.539V128.53ZM318.359 128.53C318.359 130.002 318.615 131.297 319.126 132.426C319.637 133.549 320.356 134.422 321.285 135.035C322.214 135.653 323.278 135.959 324.481 135.959C326.311 135.959 327.788 135.291 328.912 133.953C330.036 132.616 330.599 130.824 330.599 128.572C330.599 127.1 330.343 125.809 329.832 124.699C329.321 123.59 328.601 122.726 327.672 122.108C326.743 121.491 325.68 121.184 324.477 121.184C322.674 121.184 321.207 121.853 320.069 123.19C318.931 124.528 318.359 126.306 318.359 128.525V128.53Z" fill="#840019"/>
<path d="M341.082 131.516V117.688C341.082 117.539 341.133 117.409 341.24 117.307C341.347 117.205 341.472 117.149 341.621 117.149H345.574C345.723 117.149 345.853 117.201 345.955 117.307C346.062 117.409 346.113 117.539 346.113 117.688V130.945C346.113 132.588 346.47 133.828 347.19 134.664C347.91 135.5 348.969 135.917 350.377 135.917C351.515 135.917 352.583 135.611 353.586 134.998C354.59 134.385 355.495 133.545 356.304 132.468V117.688C356.304 117.539 356.355 117.414 356.462 117.307C356.568 117.201 356.694 117.149 356.842 117.149H360.795C360.944 117.149 361.074 117.201 361.176 117.307C361.283 117.414 361.334 117.539 361.334 117.688V139.507C361.334 139.655 361.283 139.785 361.176 139.887C361.069 139.99 360.944 140.045 360.795 140.045H357.112C356.963 140.045 356.833 139.994 356.731 139.887C356.624 139.781 356.573 139.655 356.573 139.502V136.735C355.704 137.914 354.678 138.843 353.498 139.521C352.314 140.199 350.976 140.542 349.48 140.542C346.847 140.542 344.789 139.748 343.307 138.165C341.825 136.577 341.082 134.362 341.082 131.52V131.516Z" fill="#840019"/>
<path d="M368.07 139.507V117.688C368.07 117.54 368.121 117.41 368.227 117.307C368.334 117.205 368.46 117.15 368.608 117.15H372.38C372.529 117.15 372.659 117.201 372.761 117.307C372.868 117.414 372.919 117.54 372.919 117.688V121.008C373.996 119.87 375.111 118.942 376.263 118.227C377.415 117.512 378.665 116.968 380.012 116.611L380.193 116.564C380.402 116.564 380.55 116.713 380.643 117.015L381.498 121.101L381.544 121.282C381.544 121.523 381.396 121.672 381.094 121.732C379.538 121.974 378.117 122.359 376.83 122.898C375.543 123.436 374.298 124.184 373.105 125.141V139.507C373.105 139.655 373.054 139.785 372.947 139.887C372.84 139.99 372.714 140.045 372.566 140.045H368.613C368.464 140.045 368.334 139.994 368.232 139.887C368.13 139.781 368.074 139.655 368.074 139.507H368.07Z" fill="#840019"/>
<path d="M395.465 121.226V117.693C395.465 117.54 395.516 117.414 395.623 117.307C395.73 117.201 395.855 117.149 396.004 117.149H400.133V115.39C400.133 112.683 400.979 110.565 402.665 109.033C404.351 107.501 406.896 106.735 410.301 106.735H411.467C411.616 106.735 411.741 106.786 411.848 106.893C411.955 106.999 412.006 107.125 412.006 107.278V110.811C412.006 110.965 411.955 111.09 411.848 111.197C411.746 111.304 411.616 111.355 411.467 111.355H410.529C408.504 111.355 407.101 111.708 406.325 112.409C405.549 113.11 405.164 114.243 405.164 115.798V117.145H411.226C411.374 117.145 411.504 117.196 411.606 117.303C411.713 117.41 411.764 117.535 411.764 117.688V121.222C411.764 121.375 411.713 121.5 411.606 121.607C411.5 121.714 411.374 121.765 411.226 121.765H405.164V139.497C405.164 139.646 405.113 139.771 405.006 139.878C404.899 139.985 404.774 140.036 404.625 140.036H400.672C400.524 140.036 400.394 139.985 400.291 139.878C400.185 139.776 400.133 139.646 400.133 139.497V121.765H396.004C395.855 121.765 395.725 121.714 395.623 121.607C395.516 121.5 395.465 121.375 395.465 121.222V121.226ZM414.863 109.456C414.863 108.518 415.169 107.766 415.791 107.19C416.409 106.619 417.199 106.331 418.165 106.331C419.131 106.331 419.898 106.619 420.506 107.19C421.115 107.766 421.421 108.518 421.421 109.456C421.421 110.394 421.124 111.164 420.529 111.726C419.935 112.288 419.145 112.571 418.165 112.571C417.185 112.571 416.409 112.283 415.791 111.703C415.174 111.123 414.863 110.375 414.863 109.456ZM415.671 139.507V117.688C415.671 117.54 415.722 117.41 415.824 117.307C415.926 117.205 416.056 117.149 416.2 117.149H420.162C420.311 117.149 420.436 117.201 420.539 117.307C420.641 117.414 420.697 117.54 420.697 117.688V139.507C420.697 139.655 420.645 139.785 420.539 139.887C420.432 139.99 420.306 140.045 420.162 140.045H416.2C416.052 140.045 415.926 139.994 415.824 139.887C415.722 139.781 415.671 139.655 415.671 139.507Z" fill="#840019"/>
<path d="M427.483 139.507V117.688C427.483 117.539 427.534 117.409 427.641 117.307C427.748 117.205 427.873 117.149 428.022 117.149H431.794C431.942 117.149 432.072 117.201 432.175 117.307C432.281 117.414 432.332 117.539 432.332 117.688V120.381C433.498 119.123 434.72 118.18 435.993 117.553C437.265 116.927 438.636 116.611 440.103 116.611C442.616 116.611 444.576 117.419 445.989 119.035C447.396 120.65 448.097 122.851 448.097 125.633V139.502C448.097 139.651 448.046 139.781 447.939 139.883C447.833 139.985 447.707 140.041 447.559 140.041H443.606C443.457 140.041 443.327 139.99 443.225 139.883C443.123 139.776 443.067 139.651 443.067 139.502V126.037C443.067 124.542 442.728 123.367 442.054 122.512C441.381 121.658 440.387 121.236 439.068 121.236C436.792 121.236 434.608 122.461 432.509 124.918V139.507C432.509 139.655 432.458 139.785 432.351 139.887C432.244 139.99 432.119 140.045 431.97 140.045H428.017C427.869 140.045 427.739 139.994 427.636 139.887C427.534 139.781 427.479 139.655 427.479 139.507H427.483Z" fill="#840019"/>
<path d="M453.216 133.768C453.216 131.896 453.899 130.401 455.26 129.292C456.621 128.177 458.47 127.518 460.806 127.309L467.407 126.626V125.684C467.407 124.277 467.016 123.163 466.241 122.341C465.46 121.519 464.341 121.106 462.873 121.106C460.657 121.106 459.013 122.076 457.936 124.017C457.875 124.165 457.778 124.263 457.643 124.309C457.508 124.356 457.364 124.347 457.216 124.286L454.071 123.032C453.741 122.884 453.653 122.642 453.802 122.317C454.61 120.586 455.799 119.193 457.373 118.148C458.948 117.103 460.853 116.578 463.101 116.578C464.963 116.578 466.603 116.959 468.02 117.721C469.436 118.482 470.523 119.536 471.29 120.883C472.056 122.229 472.442 123.752 472.442 125.456V130.336C472.442 131.831 472.59 133.164 472.883 134.334C473.176 135.5 473.705 136.772 474.467 138.151C474.555 138.272 474.597 138.378 474.597 138.467C474.597 138.587 474.476 138.722 474.239 138.875L470.895 140.417C470.774 140.477 470.686 140.51 470.625 140.51C470.472 140.51 470.324 140.417 470.175 140.236C469.39 138.936 468.814 137.738 468.452 136.651C467.704 137.803 466.682 138.745 465.395 139.488C464.109 140.226 462.594 140.598 460.853 140.598C459.385 140.598 458.075 140.31 456.923 139.739C455.771 139.168 454.865 138.36 454.206 137.324C453.546 136.284 453.216 135.105 453.216 133.782V133.768ZM458.107 133.549C458.107 134.473 458.428 135.165 459.074 135.625C459.719 136.085 460.565 136.317 461.61 136.317C462.868 136.317 464.006 136.01 465.024 135.402C466.041 134.789 466.835 133.963 467.402 132.923V130.109L461.429 130.87C460.263 130.991 459.417 131.265 458.892 131.697C458.368 132.129 458.107 132.746 458.107 133.549Z" fill="#840019"/>
<path d="M478.945 139.507V117.688C478.945 117.539 478.996 117.409 479.103 117.307C479.209 117.205 479.335 117.149 479.483 117.149H483.255C483.404 117.149 483.534 117.201 483.636 117.307C483.743 117.414 483.794 117.539 483.794 117.688V120.381C484.96 119.123 486.181 118.18 487.454 117.553C488.727 116.927 490.097 116.611 491.565 116.611C494.078 116.611 496.038 117.419 497.45 119.035C498.857 120.65 499.559 122.851 499.559 125.633V139.502C499.559 139.651 499.508 139.781 499.401 139.883C499.294 139.99 499.169 140.041 499.02 140.041H495.067C494.919 140.041 494.788 139.99 494.686 139.883C494.584 139.776 494.528 139.651 494.528 139.502V126.037C494.528 124.542 494.189 123.367 493.516 122.512C492.842 121.658 491.848 121.236 490.529 121.236C488.253 121.236 486.07 122.461 483.97 124.918V139.507C483.97 139.655 483.919 139.785 483.812 139.887C483.706 139.99 483.58 140.045 483.432 140.045H479.479C479.33 140.045 479.2 139.994 479.098 139.887C478.996 139.781 478.94 139.655 478.94 139.507H478.945Z" fill="#840019"/>
<path d="M504.859 128.53C504.859 126.26 505.333 124.217 506.285 122.392C507.237 120.567 508.566 119.141 510.28 118.111C511.994 117.08 513.93 116.564 516.086 116.564C518.241 116.564 520.178 117.075 521.632 118.092C523.086 119.109 524.2 120.488 524.976 122.22C525.036 122.341 525.064 122.429 525.064 122.489C525.064 122.698 524.944 122.847 524.707 122.94L521.427 124.333C521.367 124.365 521.279 124.379 521.158 124.379C520.949 124.379 520.8 124.272 520.707 124.059C519.63 122.146 518.088 121.189 516.081 121.189C514.883 121.189 513.819 121.505 512.895 122.136C511.966 122.768 511.246 123.636 510.739 124.746C510.228 125.856 509.978 127.119 509.978 128.53C509.978 129.942 510.233 131.297 510.739 132.426C511.246 133.549 511.966 134.422 512.895 135.035C513.824 135.653 514.869 135.959 516.039 135.959C518.227 135.959 519.899 134.97 521.07 132.988C521.251 132.686 521.502 132.612 521.831 132.76L524.976 134.153C525.125 134.213 525.231 134.297 525.292 134.399C525.352 134.506 525.352 134.617 525.292 134.738C524.512 136.507 523.346 137.923 521.79 138.987C520.234 140.05 518.315 140.584 516.039 140.584C513.763 140.584 511.873 140.069 510.191 139.033C508.51 137.998 507.195 136.568 506.262 134.738C505.328 132.909 504.859 130.842 504.859 128.53Z" fill="#840019"/>
<path d="M528.794 128.507C528.794 126.292 529.263 124.282 530.211 122.471C531.154 120.66 532.464 119.23 534.14 118.185C535.817 117.14 537.731 116.616 539.891 116.616C541.898 116.616 543.672 117.08 545.214 118.009C546.756 118.937 547.954 120.233 548.804 121.89C549.659 123.553 550.082 125.428 550.082 127.523C550.082 127.88 550.049 128.479 549.994 129.319C549.933 129.649 549.738 129.812 549.408 129.812H533.825C534.034 131.818 534.735 133.373 535.933 134.478C537.132 135.588 538.614 136.14 540.379 136.14C542.622 136.14 544.345 135.244 545.544 133.447C545.725 133.118 545.962 133.043 546.264 133.224L549.315 134.752C549.645 134.933 549.747 135.128 549.631 135.337C548.791 136.953 547.578 138.234 545.994 139.177C544.406 140.12 542.506 140.589 540.29 140.589C538.075 140.589 536.091 140.087 534.34 139.084C532.589 138.081 531.228 136.66 530.253 134.817C529.282 132.978 528.794 130.875 528.794 128.512V128.507ZM533.959 125.948H545.186C545.005 124.333 544.429 123.084 543.458 122.201C542.487 121.319 541.28 120.878 539.844 120.878C538.409 120.878 537.118 121.333 536.073 122.248C535.023 123.163 534.322 124.393 533.964 125.953L533.959 125.948Z" fill="#840019"/>
</svg>
