<svg width="24" height="24" viewBox="0 0 24 24" fill="var(--icon-bg, transparent)" xmlns="http://www.w3.org/2000/svg">
<g id="icon-bell-exclamation">
<path id="Vector" d="M18 12.5V11C17.9404 9.73107 17.5367 8.50227 16.8321 7.4453C16.1274 6.38833 15.1484 5.54303 14 5C14 4.46957 13.7893 3.96086 13.4142 3.58579C13.0391 3.21071 12.5304 3 12 3C11.4696 3 10.9609 3.21071 10.5858 3.58579C10.2107 3.96086 10 4.46957 10 5C8.85159 5.54303 7.8726 6.38833 7.16795 7.4453C6.4633 8.50227 6.05956 9.73107 6 11V14C5.92474 14.6217 5.70457 15.2171 5.35719 15.7381C5.00981 16.2592 4.54494 16.6914 4 17H15V18C15 18.7956 14.6839 19.5587 14.1213 20.1213C13.5587 20.6839 12.7956 21 12 21C11.2044 21 10.4413 20.6839 9.87868 20.1213C9.31607 19.5587 9 18.7956 9 18V17M19 16V19M19 22V22.01" stroke="currentColor" stroke-width="2" stroke-linecap="round" stroke-linejoin="round"/>
</g>
</svg>
