<svg width="24" height="24" viewBox="0 0 24 24" fill="var(--icon-bg, transparent)" xmlns="http://www.w3.org/2000/svg">
<g id="icon-brand-cashapp">
<path id="Vector" d="M17.1 8.64813C16.997 8.74381 16.8622 8.7979 16.7216 8.79993C16.5811 8.80197 16.4447 8.7518 16.339 8.65913C15.3154 7.79513 14.0195 7.32054 12.68 7.31913C11.578 7.31913 10.475 7.68213 10.475 8.69313C10.475 9.71613 11.657 10.0571 13.021 10.5681C15.407 11.3641 17.384 12.3641 17.384 14.7051C17.384 17.2501 15.407 19.0001 12.18 19.1931L11.885 20.5571C11.8588 20.6825 11.7902 20.795 11.6908 20.8757C11.5913 20.9564 11.4671 21.0003 11.339 21.0001H9.30503L9.20303 20.9891C9.05747 20.9565 8.93058 20.868 8.84975 20.7426C8.76892 20.6173 8.74064 20.4652 8.77103 20.3191L9.08903 18.8751C7.86419 18.5682 6.73776 17.9542 5.81603 17.0911V17.0801C5.76508 17.0295 5.72465 16.9693 5.69707 16.9029C5.66948 16.8366 5.65527 16.7655 5.65527 16.6936C5.65527 16.6218 5.66948 16.5507 5.69707 16.4843C5.72465 16.418 5.76508 16.3578 5.81603 16.3071L6.95303 15.2051C7.16703 15.0051 7.50003 15.0051 7.71403 15.2051C8.75385 16.1874 10.1357 16.7256 11.566 16.7051C13.044 16.7051 14.032 16.0801 14.032 15.0911C14.032 14.1021 13.032 13.8411 11.146 13.1371C9.14603 12.4211 7.24803 11.4091 7.24803 9.04613C7.24803 6.29613 9.53203 4.95513 12.237 4.83013L12.521 3.43213C12.5473 3.30791 12.6162 3.19677 12.7157 3.1179C12.8152 3.03903 12.9391 2.99738 13.066 3.00013H15.089L15.203 3.01213C15.2732 3.02686 15.3397 3.05531 15.3989 3.09584C15.458 3.13637 15.5085 3.18819 15.5475 3.24832C15.5866 3.30844 15.6133 3.37569 15.6263 3.44619C15.6392 3.51669 15.6381 3.58906 15.623 3.65913L15.316 5.21613C16.3475 5.55843 17.3039 6.09472 18.134 6.79613L18.157 6.81813C18.373 7.04613 18.373 7.38713 18.157 7.59113L17.1 8.64813Z" stroke="currentColor" stroke-width="1.5" stroke-linecap="round" stroke-linejoin="round"/>
</g>
</svg>
