<svg width="24" height="24" viewBox="0 0 24 24" fill="var(--icon-bg, transparent)" xmlns="http://www.w3.org/2000/svg">
<g id="icon-shield-cog">
<path id="Vector" d="M11.9998 21C10.443 20.5962 8.98331 19.8836 7.70738 18.9045C6.43144 17.9254 5.36534 16.6998 4.57243 15.3005C3.77952 13.9013 3.27597 12.3569 3.09171 10.7592C2.90745 9.16147 3.04624 7.54302 3.49983 6C6.61536 6.14257 9.664 5.06658 11.9998 3C14.3357 5.06658 17.3843 6.14257 20.4998 6C21.0678 7.933 21.1348 9.957 20.7228 11.89M19.0009 21C18.4704 21 17.9617 20.7893 17.5866 20.4142C17.2116 20.0391 17.0009 19.5304 17.0009 19C17.0009 18.4696 17.2116 17.9609 17.5866 17.5858C17.9617 17.2107 18.4704 17 19.0009 17M19.0009 21C19.5313 21 20.04 20.7893 20.4151 20.4142C20.7901 20.0391 21.0009 19.5304 21.0009 19C21.0009 18.4696 20.7901 17.9609 20.4151 17.5858C20.04 17.2107 19.5313 17 19.0009 17M19.0009 21V22.5M19.0009 17V15.5M22.0319 17.25L20.7329 18M17.2698 20L15.9698 20.75M15.9698 17.25L17.2698 18M20.7329 20L22.0329 20.75" stroke="currentColor" stroke-width="1.5" stroke-linecap="round" stroke-linejoin="round"/>
</g>
</svg>
