<svg width="25" height="25" viewBox="0 0 25 25" fill="var(--icon-bg, transparent)" xmlns="http://www.w3.org/2000/svg">
<g id="icon-pix-logo">
<path id="Vector" d="M4.95243 9.31816H6.91182C8.31042 9.31816 9.65174 9.87376 10.6407 10.8627L13.9151 14.1371C14.9041 15.1261 16.2454 15.6817 17.644 15.6817H20.0473M4.95243 15.6817H6.91182C8.31042 15.6817 9.65174 15.1261 10.6407 14.1371L13.9151 10.8627C14.9041 9.87376 16.2454 9.31817 17.644 9.31817H20.0473M4.76865 15.7454L9.2544 20.2312C11.0468 22.0236 13.953 22.0236 15.7454 20.2312L20.2312 15.7454C22.0236 13.953 22.0236 11.0468 20.2312 9.25439L15.7454 4.76865C13.953 2.9762 11.0468 2.97621 9.25439 4.76865L4.76865 9.2544C2.9762 11.0468 2.97621 13.953 4.76865 15.7454Z" stroke="currentColor" stroke-width="1.5"/>
</g>
</svg>
