<svg width="25" height="24" viewBox="0 0 25 24" fill="none" xmlns="http://www.w3.org/2000/svg">
<path d="M2.75 12C2.75 8.463 2.75 6.694 3.803 5.513C3.97167 5.32367 4.15633 5.14967 4.357 4.991C5.612 4 7.491 4 11.25 4H14.25C18.009 4 19.888 4 21.142 4.99C21.3433 5.15 21.5283 5.32433 21.697 5.513C22.75 6.693 22.75 8.463 22.75 12C22.75 15.537 22.75 17.306 21.697 18.487C21.5274 18.6767 21.3417 18.8514 21.142 19.009C19.888 20 18.01 20 14.25 20H11.25C7.491 20 5.612 20 4.357 19.01C4.15756 18.852 3.9722 18.677 3.803 18.487C2.75 17.307 2.75 15.537 2.75 12ZM2.75 9H22.75H2.75Z" fill="var(--icon-bg, transparent)"/>
<path d="M2.75 12C2.75 8.463 2.75 6.694 3.803 5.513C3.97167 5.32367 4.15633 5.14967 4.357 4.991C5.612 4 7.491 4 11.25 4H14.25C18.009 4 19.888 4 21.142 4.99C21.3433 5.15 21.5283 5.32433 21.697 5.513C22.75 6.693 22.75 8.463 22.75 12C22.75 15.537 22.75 17.306 21.697 18.487C21.5274 18.6767 21.3417 18.8514 21.142 19.009C19.888 20 18.01 20 14.25 20H11.25C7.491 20 5.612 20 4.357 19.01C4.15756 18.852 3.9722 18.677 3.803 18.487C2.75 17.307 2.75 15.537 2.75 12ZM2.75 9H22.75H2.75Z" fill="white" fill-opacity="0.8"/>
<path d="M2.75 9H22.75M2.75 12C2.75 8.463 2.75 6.694 3.803 5.513C3.97167 5.32367 4.15633 5.14967 4.357 4.991C5.612 4 7.491 4 11.25 4H14.25C18.009 4 19.888 4 21.142 4.99C21.3433 5.15 21.5283 5.32433 21.697 5.513C22.75 6.693 22.75 8.463 22.75 12C22.75 15.537 22.75 17.306 21.697 18.487C21.5274 18.6767 21.3417 18.8514 21.142 19.009C19.888 20 18.01 20 14.25 20H11.25C7.491 20 5.612 20 4.357 19.01C4.15756 18.852 3.9722 18.677 3.803 18.487C2.75 17.307 2.75 15.537 2.75 12Z" stroke="currentColor" stroke-width="1.5" stroke-linecap="round" stroke-linejoin="round"/>
<path d="M12.7365 11.7315C11.7377 11.7315 10.9287 12.3389 10.9287 13.0873C10.9287 13.8357 11.7377 14.4431 12.7365 14.4431C13.7352 14.4431 14.5442 15.0505 14.5442 15.7989C14.5442 16.5473 13.7352 17.1547 12.7365 17.1547M12.7365 11.7315C13.5228 11.7315 14.1935 12.1084 14.4411 12.6354M12.7365 11.7315V10.8276M12.7365 17.1547C11.9501 17.1547 11.2794 16.7778 11.0318 16.2509M12.7365 17.1547V18.0586" stroke="currentColor" stroke-width="1.5" stroke-linecap="round" stroke-linejoin="round"/>
</svg>
