<svg width="24" height="24" viewBox="0 0 24 24" fill="var(--icon-bg, transparent)" xmlns="http://www.w3.org/2000/svg">
<g id="icon-report-search">
<path id="Vector" d="M8 5H6C5.46957 5 4.96086 5.21071 4.58579 5.58579C4.21071 5.96086 4 6.46957 4 7V19C4 19.5304 4.21071 20.0391 4.58579 20.4142C4.96086 20.7893 5.46957 21 6 21H11.697M8 5C8 4.46957 8.21071 3.96086 8.58579 3.58579C8.96086 3.21071 9.46957 3 10 3H12C12.5304 3 13.0391 3.21071 13.4142 3.58579C13.7893 3.96086 14 4.46957 14 5M8 5C8 5.53043 8.21071 6.03914 8.58579 6.41421C8.96086 6.78929 9.46957 7 10 7H12C12.5304 7 13.0391 6.78929 13.4142 6.41421C13.7893 6.03914 14 5.53043 14 5M18 12V7C18 6.46957 17.7893 5.96086 17.4142 5.58579C17.0391 5.21071 16.5304 5 16 5H14M8 11H12M8 15H11M18.5 19.5L21 22M14 17.5C14 18.163 14.2634 18.7989 14.7322 19.2678C15.2011 19.7366 15.837 20 16.5 20C17.163 20 17.7989 19.7366 18.2678 19.2678C18.7366 18.7989 19 18.163 19 17.5C19 16.837 18.7366 16.2011 18.2678 15.7322C17.7989 15.2634 17.163 15 16.5 15C15.837 15 15.2011 15.2634 14.7322 15.7322C14.2634 16.2011 14 16.837 14 17.5Z" stroke="currentColor" stroke-width="2" stroke-linecap="round" stroke-linejoin="round"/>
</g>
</svg>
