<svg width="24" height="24" viewBox="0 0 24 24" fill="var(--icon-bg, transparent)" xmlns="http://www.w3.org/2000/svg">
<g id="icon-hugeicons:credit-card">
<path id="Vector" d="M10 16H11.5M14.5 16H18M2 9H22M2 12C2 8.463 2 6.694 3.053 5.513C3.22167 5.32367 3.40633 5.14967 3.607 4.991C4.862 4 6.741 4 10.5 4H13.5C17.259 4 19.138 4 20.392 4.99C20.5933 5.15 20.7783 5.32433 20.947 5.513C22 6.693 22 8.463 22 12C22 15.537 22 17.306 20.947 18.487C20.7774 18.6767 20.5917 18.8514 20.392 19.009C19.138 20 17.26 20 13.5 20H10.5C6.741 20 4.862 20 3.607 19.01C3.40756 18.852 3.2222 18.677 3.053 18.487C2 17.307 2 15.537 2 12Z" stroke="currentColor" stroke-width="1.5" stroke-linecap="round" stroke-linejoin="round"/>
</g>
</svg>
