<svg width="24" height="24" viewBox="0 0 24 24" fill="var(--icon-bg, transparent)" xmlns="http://www.w3.org/2000/svg">
<g id="icon-home-stats">
<path id="Vector" d="M19 13V12H21L12 3L3 12H5V19C5 19.5304 5.21071 20.0391 5.58579 20.4142C5.96086 20.7893 6.46957 21 7 21H9.5M9 21V15C9 14.4696 9.21071 13.9609 9.58579 13.5858C9.96086 13.2107 10.4696 13 11 13H13C13.5304 13 14.0391 13.2107 14.4142 13.5858C14.7893 13.9609 15 14.4696 15 15M13 22L16 19L18 21L22 17M22 17H19M22 17V20" stroke="currentColor" stroke-width="1.5" stroke-linecap="round" stroke-linejoin="round" fill="var(--icon-bg, transparent)"/>
</g>
</svg>
