<svg width="12" height="24" viewBox="0 0 12 24" fill="none" xmlns="http://www.w3.org/2000/svg">
<rect width="12" height="12" transform="translate(0 0.00195312)" fill="white" fill-opacity="0.01"/>
<path d="M5.43557 3.64723L1.83839 7.75829C1.41407 8.24323 1.75846 9.00217 2.40283 9.00217H9.59717C10.2415 9.00217 10.5859 8.24323 10.1616 7.75829L6.56443 3.64724C6.26562 3.30574 5.73438 3.30574 5.43557 3.64723Z" fill="#212529" fill-opacity="0.5"/>
<rect width="12" height="12" transform="translate(0 12.002)" fill="white" fill-opacity="0.01"/>
<path d="M5.43557 20.3569L1.83839 16.2458C1.41407 15.7609 1.75846 15.002 2.40283 15.002H9.59717C10.2415 15.002 10.5859 15.7609 10.1616 16.2458L6.56443 20.3569C6.26562 20.6984 5.73438 20.6984 5.43557 20.3569Z" fill="#212529" fill-opacity="0.5"/>
</svg>
